<?xml version="1.0" encoding="UTF-8" standalone="no" ?>
<!DOCTYPE svg PUBLIC "-//W3C//DTD SVG 1.1//EN" "http://www.w3.org/Graphics/SVG/1.1/DTD/svg11.dtd">
<svg xmlns="http://www.w3.org/2000/svg" xmlns:xlink="http://www.w3.org/1999/xlink" version="1.1" width="1080" height="1080" viewBox="0 0 1080 1080" xml:space="preserve">
<desc>Created with Fabric.js 5.2.4</desc>
<defs>
</defs>
<g transform="matrix(1 0 0 1 540 540)" id="c85e29ad-0420-4406-905b-08b8f56d63be"  >
<rect style="stroke: none; stroke-width: 1; stroke-dasharray: none; stroke-linecap: butt; stroke-dashoffset: 0; stroke-linejoin: miter; stroke-miterlimit: 4; fill: rgb(255,255,255); fill-rule: nonzero; opacity: 1; visibility: hidden;" vector-effect="non-scaling-stroke"  x="-540" y="-540" rx="0" ry="0" width="1080" height="1080" />
</g>
<g transform="matrix(1 0 0 1 540 540)" id="5f9b6c78-b31c-4a81-95a4-f8d55ab6f9df"  >
</g>
<g transform="matrix(13.5 0 0 13.5 540 540)"  >
<g style=""   >
		<g transform="matrix(1 0 0 1 0 0)" id="Layer_1"  >
<path style="stroke: none; stroke-width: 1; stroke-dasharray: none; stroke-linecap: butt; stroke-dashoffset: 0; stroke-linejoin: miter; stroke-miterlimit: 4; fill: rgb(218,11,78); fill-rule: nonzero; opacity: 1;" vector-effect="non-scaling-stroke"  transform=" translate(347.7, -956)" d="M -349 993.7 C -368.9 993.7 -385.4 978.1 -386.6 958.2 C -387.8 937.5 -371.90000000000003 919.6 -351.20000000000005 918.4000000000001 C -350.40000000000003 918.4000000000001 -349.70000000000005 918.3000000000001 -349.00000000000006 918.3000000000001 C -329.1000000000001 918.3000000000001 -312.6000000000001 933.9000000000001 -311.40000000000003 953.8000000000001 L -311.40000000000003 954.5000000000001 L -310.70000000000005 953.5000000000001 C -310.50000000000006 953.2000000000002 -310.20000000000005 953.0000000000001 -309.80000000000007 953.0000000000001 C -309.6000000000001 953.0000000000001 -309.4000000000001 953.1000000000001 -309.20000000000005 953.2000000000002 C -308.70000000000005 953.5000000000001 -308.6 954.2000000000002 -308.90000000000003 954.6000000000001 L -311.40000000000003 958.4000000000001 L -311.70000000000005 958.7 C -311.90000000000003 958.8000000000001 -312.1 958.9000000000001 -312.30000000000007 958.9000000000001 C -312.6000000000001 958.9000000000001 -313.00000000000006 958.7 -313.20000000000005 958.4000000000001 L -315.70000000000005 954.6000000000001 C -316.00000000000006 954.1000000000001 -315.90000000000003 953.5000000000001 -315.40000000000003 953.2000000000002 C -315.20000000000005 953.1000000000001 -315.00000000000006 953.0000000000001 -314.8 953.0000000000001 C -314.5 953.0000000000001 -314.1 953.2000000000002 -313.90000000000003 953.5000000000001 L -313.3 954.4000000000001 L -313.40000000000003 953.5000000000001 C -314.40000000000003 939.3000000000001 -323.8 927.0000000000001 -337.20000000000005 922.3000000000001 C -341.00000000000006 921.0000000000001 -345.00000000000006 920.3000000000001 -349.00000000000006 920.3000000000001 C -364.1000000000001 920.3000000000001 -377.70000000000005 929.9000000000001 -382.70000000000005 944.2 C -385.80000000000007 953.2 -385.30000000000007 962.9000000000001 -381.20000000000005 971.5 C -377.1 980.1 -369.80000000000007 986.5 -360.80000000000007 989.7 C -357.00000000000006 991 -353.00000000000006 991.7 -349.00000000000006 991.7 C -333.90000000000003 991.7 -320.30000000000007 982.1 -315.30000000000007 967.8000000000001 C -315.1000000000001 967.3000000000001 -314.70000000000005 967.1 -314.30000000000007 967.1 C -314.20000000000005 967.1 -314.00000000000006 967.1 -313.9000000000001 967.2 C -313.4000000000001 967.4000000000001 -313.1000000000001 968 -313.30000000000007 968.5 C -318.4000000000001 982.9 -331.4000000000001 992.7 -346.6000000000001 993.6 C -347.50000000000006 993.6 -348.2000000000001 993.7 -349.00000000000006 993.7 z" stroke-linecap="round" />
</g>
		<g transform="matrix(1 0 0 1 34.4 7.1)" id="Layer_1"  >
<circle style="stroke: none; stroke-width: 1; stroke-dasharray: none; stroke-linecap: butt; stroke-dashoffset: 0; stroke-linejoin: miter; stroke-miterlimit: 4; fill: rgb(218,11,78); fill-rule: nonzero; opacity: 1;" vector-effect="non-scaling-stroke"  cx="0" cy="0" r="1" />
</g>
		<g transform="matrix(1 0 0 1 -1.5 -10.4)" id="Layer_1"  >
<path style="stroke: none; stroke-width: 1; stroke-dasharray: none; stroke-linecap: butt; stroke-dashoffset: 0; stroke-linejoin: miter; stroke-miterlimit: 4; fill: rgb(108,137,194); fill-rule: nonzero; opacity: 1;" vector-effect="non-scaling-stroke"  transform=" translate(349.2, -945.6)" d="M -349.2 955.7 C -354.8 955.7 -359.3 951.2 -359.3 945.6 C -359.3 940 -354.8 935.5 -349.2 935.5 C -343.59999999999997 935.5 -339.09999999999997 940 -339.09999999999997 945.6 C -339.09999999999997 951.2 -343.59999999999997 955.7 -349.2 955.7 z M -349.2 937.3000000000001 C -353.8 937.3000000000001 -357.5 941.0000000000001 -357.5 945.6 C -357.5 950.2 -353.8 953.9 -349.2 953.9 C -344.59999999999997 953.9 -340.9 950.1999999999999 -340.9 945.6 C -340.9 941.1 -344.59999999999997 937.3000000000001 -349.2 937.3000000000001 z" stroke-linecap="round" />
</g>
		<g transform="matrix(1 0 0 1 -1.4 8)" id="Layer_1"  >
<path style="stroke: none; stroke-width: 1; stroke-dasharray: none; stroke-linecap: butt; stroke-dashoffset: 0; stroke-linejoin: miter; stroke-miterlimit: 4; fill: rgb(108,137,194); fill-rule: nonzero; opacity: 1;" vector-effect="non-scaling-stroke"  transform=" translate(349.1, -964)" d="M -329.9 974.1 L -368.4 974.1 L -368.4 973.2 C -368.4 962.6 -359.79999999999995 953.9000000000001 -349.09999999999997 953.9000000000001 C -338.49999999999994 953.9000000000001 -329.79999999999995 962.5000000000001 -329.79999999999995 973.2 L -329.79999999999995 974.1 z M -366.7 972.4 L -331.7 972.4 C -332.2 963.1 -339.8 955.8 -349.2 955.8 C -358.59999999999997 955.6999999999999 -366.2 963.0999999999999 -366.7 972.4 z" stroke-linecap="round" />
</g>
</g>
</g>
</svg>