<svg xmlns="http://www.w3.org/2000/svg" viewBox="0 0 55.2 38.4" xmlns:v="https://vecta.io/nano"><path d="M3.03 0h49.13c1.67 0 3.03 1.36 3.03 3.03v32.33a3.04 3.04 0 0 1-3.01 3.03H3.01C1.35 38.39 0 37.03 0 35.37V3.03C0 1.36 1.36 0 3.03 0h0z" fill="#de2910"/><path d="M27.6 19.19c-6.74-2.85-3.75-11.62 2.69-11.18-1.3.67-1.49 1.92-.75 3.08.83 1.3-.08 3.38-1.2 3.89-1.85.83-2.22 3.06-.74 4.21h0z" fill="#ffffff"/><path d="M27.23 12.86l-.38.6-.14-.69-.68-.18.62-.34-.04-.7.52.48.66-.26-.3.64.45.54-.71-.09h0zm.41 6.26c-.81-.42-1.47-1.29-1.76-2.33-.33-1.2-.14-2.48.52-3.52l-.14-.09c-.68 1.08-.88 2.42-.54 3.66.3 1.1.97 1.99 1.84 2.44l.08-.16h0z" fill="#de2910"/><path d="M27.6 19.2c.63-7.29 9.89-7.16 11.46-.89-1.04-1.03-2.29-.83-3.16.24-.98 1.19-3.24.97-4.07.06-1.35-1.51-3.58-1.18-4.23.59h0z" fill="#ffffff"/><path d="M33.52 16.89l-.68-.18.62-.34-.04-.7.52.48.66-.26-.3.64.45.54-.7-.08-.38.59-.15-.69h0zm-5.83 2.32c.15-.9.77-1.8 1.67-2.39a4.45 4.45 0 0 1 3.51-.6l.04-.16a4.59 4.59 0 0 0-3.64.62c-.95.63-1.59 1.54-1.75 2.5l.17.03h0z" fill="#de2910"/><path d="M27.6 19.2c7.12-1.66 9.87 7.2 4.39 10.63.66-1.31.08-2.43-1.2-2.93-1.44-.56-1.93-2.78-1.31-3.85 1.01-1.77 0-3.78-1.88-3.85h0 0z" fill="#ffffff"/><path d="M31.62 24.11l-.04-.7.52.48.66-.26-.3.64.45.54-.7-.08-.38.6-.14-.69-.68-.18.61-.35h0zm-4-4.82c.91-.14 1.95.18 2.79.85.97.77 1.57 1.92 1.65 3.15l.17-.01c-.09-1.28-.71-2.47-1.71-3.27-.89-.71-1.96-1.04-2.92-.89l.02.17h0z" fill="#de2910"/><path d="M27.6 19.21c3.78 6.26-3.8 11.61-8.75 7.46 1.45.22 2.34-.68 2.41-2.05.09-1.54 2.05-2.69 3.26-2.44 1.99.41 3.6-1.17 3.08-2.97h0z" fill="#ffffff"/><path d="M24.17 24.55l.66-.26-.3.64.45.54-.7-.08-.38.59-.14-.69-.68-.18.62-.34-.04-.7.51.48h0zm3.35-5.31c.41.82.43 1.91.05 2.92-.44 1.16-1.35 2.09-2.49 2.55l.06.16c1.19-.48 2.13-1.44 2.58-2.64.4-1.07.38-2.18-.06-3.05l-.14.06h0z" fill="#de2910"/><path d="M27.59 19.2c-4.79 5.53-12.21-.02-9.8-6.02.23 1.45 1.36 2.01 2.7 1.66 1.49-.39 3.19 1.12 3.33 2.35.22 2.02 2.22 3.06 3.77 2.01h0 0z" fill="#ffffff"/><path d="M21.46 17.59l.45.54-.7-.08-.38.6-.14-.69-.69-.18.62-.34-.04-.7.52.48.66-.26-.3.63h0zm6.08 1.55c-.65.65-1.68 1-2.76.95-1.24-.06-2.4-.63-3.19-1.58l-.13.11c.82.98 2.03 1.58 3.31 1.64 1.14.05 2.19-.31 2.89-1l-.12-.12h0z" fill="#de2910"/></svg>