<svg xmlns="http://www.w3.org/2000/svg" version="1.0" viewBox="0 0 648 432"><path fill="#ffffff" d="M0 0h648v432H0z"/><circle cy="216" cx="324" r="54" fill="#820b5c"/><path d="M234.14 156.09a108 108 0 0 1 179.72 119.82z" fill="#ff1600"/><path d="M234.14 156.09a108 108 0 0 0 179.72 119.82z" fill="#0500b8"/><circle cy="186.05" cx="279.07" r="54" fill="#ff1600"/><circle cy="245.95" cx="368.93" r="54" fill="#0500b8"/><path d="m461.29 129.88 14.97-9.98 27.46 41.18-14.97 9.99zM428.84 81.208l14.98-9.985 27.45 41.187-14.97 9.98zM451.3 66.231l14.98-9.985 59.91 89.864-14.98 9.98zM506.22 99.929l14.98-9.985 27.45 41.186-14.97 9.99zM473.77 51.254l14.98-9.985 27.45 41.187-14.97 9.984zM219.16 81.208l-14.98-9.985-59.9 89.857 14.97 9.99zM196.7 66.231l-14.98-9.985-59.91 89.864 14.98 9.98zM174.23 51.254l-14.98-9.985-59.904 89.861 14.974 9.99zM219.16 350.79l-14.98 9.99-59.9-89.86 14.97-9.99zM164.25 317.09l-14.98 9.99-27.46-41.19 14.98-9.98zM196.7 365.77l-14.98 9.98-27.46-41.18 14.98-9.99zM174.23 380.75l-14.98 9.98-59.904-89.86 14.974-9.99zM461.29 302.12l14.97 9.98 27.46-41.18-14.97-9.99zM428.84 350.79l14.98 9.99 27.45-41.19-14.97-9.98zM483.75 317.09l14.98 9.99 27.46-41.19-14.98-9.98zM451.3 365.77l14.98 9.98 27.46-41.18-14.98-9.99zM506.22 332.07l14.98 9.99 27.45-41.19-14.97-9.99zM473.77 380.75l14.98 9.98 27.45-41.19-14.97-9.98z"/></svg>