<?xml version="1.0" standalone="no"?>
<!DOCTYPE svg PUBLIC "-//W3C//DTD SVG 20010904//EN"
 "http://www.w3.org/TR/2001/REC-SVG-20010904/DTD/svg10.dtd">
<svg version="1.0" xmlns="http://www.w3.org/2000/svg"
 width="1136.000000pt" height="936.000000pt" viewBox="0 0 1136.000000 936.000000"
 preserveAspectRatio="xMidYMid meet">

<g transform="translate(0.000000,936.000000) scale(0.100000,-0.100000)"
fill="#000000" stroke="none">
<path d="M170 9357 c0 -2 76 -34 170 -72 93 -39 170 -73 170 -76 0 -21 -181
-77 -355 -109 -164 -30 -155 -27 -155 -55 0 -21 4 -25 22 -20 13 2 75 13 138
24 140 25 268 61 357 101 36 17 77 30 90 30 32 0 63 -17 63 -35 0 -26 -45 -45
-161 -66 -136 -24 -279 -59 -411 -101 -89 -28 -98 -33 -98 -56 0 -18 4 -23 17
-19 10 2 81 23 158 46 77 22 213 55 302 72 172 34 217 52 234 96 21 56 -12 98
-87 110 -22 3 -108 34 -193 69 -123 52 -164 64 -207 64 -30 0 -54 -1 -54 -3z"/>
<path d="M6575 9344 c57 -45 184 -95 298 -119 96 -21 233 -30 241 -17 3 6 -13
42 -36 81 -37 61 -47 71 -71 71 -23 0 -26 -3 -19 -17 15 -26 -16 -83 -45 -83
-36 0 -162 30 -168 40 -3 5 2 21 11 35 16 25 16 25 -14 25 -22 0 -32 -6 -37
-20 -3 -11 -11 -20 -16 -20 -5 0 -27 9 -49 20 -22 11 -56 20 -77 20 -36 -1
-37 -1 -18 -16z"/>
<path d="M11276 9308 c-23 -66 -68 -136 -141 -223 -31 -37 -58 -72 -59 -78 -1
-7 -21 -31 -45 -54 -52 -52 -52 -80 -1 -105 52 -27 152 -23 249 7 72 23 81 28
81 50 0 30 -5 31 -71 4 -60 -23 -160 -35 -214 -25 l-37 7 23 25 c28 30 98 56
212 80 83 17 87 19 87 45 l0 27 -87 -20 c-49 -10 -99 -22 -113 -25 -24 -6 -23
-4 11 34 76 84 144 200 163 276 6 23 3 27 -16 27 -19 0 -27 -10 -42 -52z"/>
<path d="M7885 9315 c-35 -34 -34 -86 1 -114 30 -24 52 -26 88 -10 52 24 55
98 4 133 -32 23 -65 20 -93 -9z m74 -44 c8 -14 7 -22 -4 -31 -19 -16 -45 -6
-45 18 0 36 33 45 49 13z"/>
<path d="M3461 9317 c-6 -8 -7 -27 -1 -52 13 -57 12 -85 -4 -85 -7 0 -25 -9
-40 -21 -52 -41 -21 -134 42 -127 19 2 32 13 43 36 l17 33 20 -36 c14 -23 26
-33 37 -29 20 8 20 13 -15 85 -16 34 -37 93 -47 131 -17 68 -33 87 -52 65z m5
-212 c-7 -26 -26 -30 -33 -8 -4 12 27 47 34 39 3 -3 2 -17 -1 -31z"/>
<path d="M10522 9318 c-17 -17 -15 -48 4 -55 11 -4 22 1 31 13 12 17 13 15 7
-14 -6 -28 -4 -32 15 -32 24 0 28 -22 6 -40 -17 -14 -20 -36 -5 -45 16 -10 47
13 60 45 12 28 11 34 -9 60 -11 16 -21 35 -21 43 0 21 -22 37 -50 37 -14 0
-31 -5 -38 -12z"/>
<path d="M2998 9298 c-47 -13 -113 -69 -140 -122 -27 -50 -29 -136 -5 -182 23
-45 80 -91 127 -104 111 -30 274 46 300 138 10 39 -1 116 -25 161 -22 43 -83
90 -139 106 -56 17 -66 17 -118 3z m140 -59 c40 -20 102 -92 90 -105 -7 -6
-292 -53 -325 -54 -29 0 -30 27 -4 78 47 93 145 126 239 81z m102 -176 c0 -36
-40 -84 -87 -105 -64 -28 -151 -35 -190 -14 -32 16 -80 73 -70 83 6 6 277 50
320 52 19 1 27 -4 27 -16z"/>
<path d="M5744 9275 c-9 -14 -14 -33 -11 -44 4 -16 0 -18 -38 -13 -38 4 -43 2
-48 -19 -4 -13 -7 -42 -7 -63 l0 -40 -29 46 c-33 52 -60 65 -101 48 -37 -16
-60 -51 -60 -93 0 -65 69 -90 115 -42 30 33 37 22 39 -59 1 -54 3 -61 21 -61
17 0 20 8 23 58 l3 58 35 -30 c19 -17 43 -31 53 -31 58 0 88 85 53 153 l-20
37 22 0 c44 0 74 46 55 83 -16 29 -28 37 -61 37 -18 0 -33 -8 -44 -25z m66
-36 c0 -5 -7 -9 -15 -9 -15 0 -20 12 -9 23 8 8 24 -1 24 -14z m-74 -94 c20
-20 25 -34 22 -63 -4 -50 -31 -55 -58 -10 -28 45 -27 98 2 98 5 0 20 -11 34
-25z m-195 -8 c-1 -4 -1 -16 -1 -27 0 -26 -38 -47 -46 -25 -7 18 23 68 37 63
6 -2 10 -7 10 -11z"/>
<path d="M9070 9261 c-160 -34 -322 -112 -452 -215 -32 -26 -58 -54 -58 -64 0
-10 61 -78 138 -153 129 -128 207 -196 588 -519 87 -74 236 -210 331 -303 194
-191 181 -186 250 -95 208 274 217 644 25 966 -193 321 -480 455 -822 383z
m339 -46 c190 -45 370 -209 481 -440 90 -187 114 -379 70 -564 -22 -92 -81
-214 -134 -276 -34 -40 -62 -43 -38 -4 17 27 5 42 -28 35 -34 -6 -66 25 -62
60 3 21 -1 24 -26 24 -16 0 -35 7 -42 15 -11 13 -9 20 13 43 53 55 19 87 -35
35 l-28 -27 -21 21 c-18 18 -19 23 -8 41 20 32 -1 51 -36 32 -22 -12 -27 -11
-45 5 -19 17 -19 20 -4 36 9 10 13 23 9 28 -8 15 -38 14 -53 -1 -9 -9 -16 -7
-32 7 -11 10 -17 22 -14 27 8 13 -15 38 -31 32 -15 -6 -64 25 -65 40 0 6 12
22 26 37 27 29 27 59 0 59 -8 0 -26 -13 -39 -30 -30 -35 -38 -37 -61 -11 -15
16 -15 22 -4 40 19 31 -2 48 -34 27 -23 -15 -26 -15 -44 5 -14 16 -15 23 -6
26 15 6 16 39 2 48 -6 4 -21 0 -33 -8 -21 -13 -26 -13 -50 5 -26 19 -27 22
-11 39 9 10 13 23 9 28 -8 15 -38 14 -53 -1 -10 -10 -17 -8 -33 9 l-21 21 37
41 c22 24 35 47 31 56 -9 26 -33 17 -70 -27 -35 -40 -36 -41 -56 -23 -25 23
-25 30 1 56 19 19 20 23 6 36 -14 14 -18 13 -43 -6 -25 -19 -29 -20 -43 -7
-13 14 -13 18 3 35 20 22 15 51 -7 51 -8 0 -20 -7 -27 -15 -17 -20 -33 -19
-55 5 -17 19 -17 21 -2 38 34 37 12 64 -30 37 -24 -16 -26 -16 -45 3 -20 20
-20 20 37 65 65 51 225 136 301 161 144 47 323 59 443 31z"/>
<path d="M9078 9063 c-61 -23 -140 -80 -136 -98 6 -26 217 -252 455 -487 284
-282 348 -339 367 -332 29 11 51 122 50 259 0 114 -3 140 -27 210 -37 111 -90
197 -173 279 -124 124 -238 177 -394 183 -73 2 -106 -1 -142 -14z m262 -53
c192 -56 359 -239 415 -455 18 -69 19 -226 2 -299 l-12 -50 -190 180 c-169
160 -527 533 -548 569 -5 10 6 22 38 40 79 47 169 51 295 15z"/>
<path d="M10480 9150 c-48 -12 -87 -58 -95 -115 -19 -120 78 -158 126 -49 l20
44 41 -27 c30 -21 53 -27 92 -28 44 0 51 3 51 20 0 14 -7 20 -25 21 -14 1 -35
2 -47 3 -33 2 -80 47 -95 93 -16 47 -19 49 -68 38z m7 -85 c-13 -79 -57 -126
-57 -60 0 44 25 95 47 95 12 0 14 -7 10 -35z"/>
<path d="M5261 9121 c-11 -7 -7 -43 18 -197 18 -103 37 -194 43 -201 17 -21
43 -15 113 23 36 20 110 51 163 68 114 37 123 42 115 61 -7 20 -25 18 -123
-14 l-85 -29 -35 38 c-35 37 -106 80 -134 80 -9 0 -17 20 -25 63 -6 35 -11 71
-11 79 0 22 -23 39 -39 29z m135 -249 c71 -52 72 -58 15 -86 -28 -15 -52 -26
-55 -26 -2 0 -7 21 -11 48 -3 26 -9 57 -12 70 -7 31 15 29 63 -6z"/>
<path d="M7361 8926 c-6 -7 -18 -60 -27 -117 -18 -116 -14 -304 9 -399 12 -50
15 -55 37 -52 218 25 388 53 406 67 16 11 13 19 -32 91 -69 111 -189 258 -284
347 -45 43 -85 77 -90 77 -4 0 -13 -6 -19 -14z m152 -399 c51 -109 55 -101
-55 -113 l-67 -6 -8 28 c-10 38 -10 373 0 399 6 15 17 -8 47 -96 21 -64 58
-159 83 -212z m-2 227 c93 -98 230 -287 217 -299 -2 -2 -30 -7 -62 -11 -44 -5
-60 -4 -67 7 -28 44 -154 359 -144 359 2 0 28 -25 56 -56z"/>
<path d="M4718 8834 c-172 -46 -844 -280 -1216 -424 -149 -58 -230 -130 -239
-214 -7 -58 16 -122 115 -321 41 -82 89 -190 107 -240 18 -49 47 -121 64 -158
27 -61 35 -70 78 -89 70 -31 133 -21 305 47 154 62 879 370 1067 454 126 57
240 128 265 166 36 55 32 72 -51 235 -45 89 -100 217 -128 300 -54 156 -90
221 -144 257 -44 30 -71 28 -223 -13z m217 -38 c34 -34 67 -104 110 -236 21
-63 73 -185 117 -270 43 -85 78 -164 78 -174 0 -30 -70 -89 -166 -138 -92 -48
-555 -249 -1014 -441 -226 -94 -275 -111 -331 -115 -39 -2 -75 1 -88 7 -27 15
-56 74 -114 229 -26 67 -69 164 -96 215 -69 129 -121 259 -121 304 0 66 52
121 160 169 175 79 1090 399 1280 448 123 32 154 32 185 2z"/>
<path d="M4795 8671 c-52 -32 -77 -67 -82 -114 -16 -136 150 -200 236 -91 44
57 31 159 -26 204 -32 25 -88 26 -128 1z"/>
<path d="M4544 8626 c-3 -7 29 -82 71 -165 l75 -152 -47 -20 c-62 -27 -237
-98 -285 -114 l-36 -14 -63 142 c-64 148 -80 174 -98 163 -19 -12 -13 -32 54
-178 35 -78 64 -143 62 -144 -1 -1 -82 -31 -179 -67 l-177 -64 -45 106 c-24
58 -51 123 -60 144 -10 26 -21 37 -35 37 -12 0 -21 -5 -21 -11 0 -6 25 -71 55
-144 30 -72 55 -136 55 -141 0 -5 -72 -38 -160 -73 -152 -60 -185 -82 -146
-97 8 -3 82 22 166 55 83 34 155 61 159 61 4 0 36 -61 71 -135 68 -145 80
-164 99 -141 9 11 -1 41 -48 142 -33 71 -61 135 -63 142 -2 9 56 35 172 77 96
36 176 65 177 65 1 0 31 -57 68 -127 75 -145 89 -163 107 -145 10 10 -2 41
-55 149 -38 74 -65 139 -60 143 4 4 53 24 108 45 55 21 133 53 173 71 l74 34
64 -135 c60 -125 82 -153 99 -125 3 5 -21 68 -55 141 -33 72 -60 133 -60 135
0 2 59 33 130 69 72 36 134 72 137 81 15 40 -19 32 -151 -37 -75 -39 -138 -70
-140 -68 -1 2 -35 67 -75 144 -40 77 -78 146 -83 153 -14 16 -27 15 -34 -2z"/>
<path d="M4373 8524 c-52 -34 -73 -71 -73 -129 0 -42 5 -52 39 -86 33 -33 45
-39 82 -39 50 0 99 26 125 66 25 38 23 112 -4 155 -39 64 -102 76 -169 33z
m127 -56 c26 -43 25 -79 -1 -112 -29 -37 -61 -48 -100 -34 -67 23 -70 119 -5
159 48 29 83 25 106 -13z"/>
<path d="M3959 8381 c-46 -29 -79 -79 -79 -120 0 -59 52 -123 110 -136 42 -9
115 26 140 67 40 67 15 167 -51 200 -47 25 -68 23 -120 -11z m120 -47 c14 -18
21 -41 21 -69 0 -36 -5 -48 -31 -69 -17 -14 -39 -26 -49 -26 -67 0 -111 73
-79 131 13 26 68 59 96 59 12 0 31 -12 42 -26z"/>
<path d="M4965 8284 c-70 -36 -100 -86 -92 -153 4 -36 13 -52 41 -78 31 -28
43 -33 87 -33 46 0 55 4 89 38 49 48 59 95 35 158 -28 74 -95 102 -160 68z"/>
<path d="M3561 8248 c-109 -54 -121 -196 -20 -250 42 -22 71 -23 115 -2 91 43
110 167 36 236 -39 36 -80 41 -131 16z m96 -53 c11 -8 23 -26 25 -40 6 -30 6
-30 -18 -3 -10 12 -13 18 -6 14 6 -4 12 -3 12 3 0 11 -32 31 -50 31 -6 0 -9
-4 -6 -8 2 -4 -9 -8 -25 -7 -26 0 -27 1 -12 12 23 17 54 16 80 -2z m-110 -50
c-1 -21 -4 -30 -9 -22 -5 8 -8 6 -9 -8 0 -12 -3 -15 -6 -7 -4 11 14 72 22 72
2 0 3 -16 2 -35z m129 -63 c-8 -16 -23 -32 -32 -36 -13 -5 -14 -4 -6 7 7 8 8
18 4 22 -4 5 -2 5 4 2 6 -4 16 5 23 20 6 14 14 23 17 20 3 -3 -1 -19 -10 -35z
m-103 -28 c7 -1 21 -2 32 -3 16 -1 17 -3 6 -10 -23 -15 -81 17 -81 43 0 6 7 2
16 -9 8 -11 20 -21 27 -21z"/>
<path d="M4545 8137 c-79 -44 -106 -127 -65 -194 26 -44 63 -66 110 -66 75 0
140 66 140 141 0 71 -61 142 -122 142 -13 0 -41 -10 -63 -23z m110 -47 c9 -10
20 -39 22 -63 4 -36 1 -48 -18 -70 -36 -41 -78 -45 -117 -12 -51 43 -42 107
21 145 41 25 69 25 92 0z"/>
<path d="M4145 8003 c-63 -33 -105 -88 -105 -138 0 -44 36 -101 76 -120 63
-30 135 -6 174 58 65 106 -43 253 -145 200z m100 -73 c37 -71 1 -150 -70 -150
-61 0 -99 61 -75 121 15 35 52 58 97 59 26 0 36 -6 48 -30z"/>
<path d="M3714 7851 c-74 -45 -98 -112 -66 -183 39 -90 145 -104 214 -29 33
34 38 47 38 86 0 51 -21 101 -54 127 -28 23 -93 23 -132 -1z m102 -39 c41 -27
45 -108 8 -146 -55 -54 -138 -17 -138 61 0 29 7 42 34 65 33 27 73 36 96 20z"/>
<path d="M1812 8789 c-230 -48 -389 -142 -497 -294 -53 -74 -158 -290 -174
-357 -18 -76 -14 -225 9 -314 71 -276 268 -475 555 -559 181 -53 432 -42 570
25 198 97 374 317 437 547 31 115 31 309 0 417 -77 267 -290 483 -534 541 -88
21 -252 18 -366 -6z m273 -27 c6 -4 11 -34 13 -67 2 -33 14 -91 26 -128 l23
-68 -23 -55 c-12 -30 -27 -61 -33 -68 -8 -10 -52 -16 -149 -21 -75 -4 -154
-10 -174 -15 -36 -7 -39 -6 -89 47 -40 42 -50 59 -45 76 4 12 16 72 28 134
l22 112 76 20 c118 32 301 51 325 33z m386 -189 c37 -38 81 -90 99 -116 34
-51 90 -168 90 -189 0 -11 -137 -143 -166 -160 -7 -5 -45 -14 -86 -22 -40 -8
-85 -17 -100 -21 -21 -6 -28 -4 -28 8 0 8 -16 35 -36 59 -21 23 -55 81 -76
128 l-39 84 30 66 c17 37 31 71 32 76 0 5 40 36 90 68 49 32 94 65 100 73 6 7
14 13 18 13 4 0 36 -30 72 -67z m-984 -91 c75 -26 85 -32 113 -75 17 -25 47
-60 66 -76 19 -17 34 -34 34 -39 0 -8 -117 -262 -124 -269 -1 -1 -44 -9 -96
-17 l-95 -15 -50 33 c-27 18 -72 53 -98 77 l-49 44 21 52 c51 131 159 313 184
313 7 0 49 -13 94 -28z m1066 -456 c23 -18 62 -46 85 -62 43 -27 44 -28 37
-71 -14 -98 -73 -228 -149 -331 -53 -72 -47 -71 -160 -16 -39 19 -75 34 -82
34 -12 0 -67 77 -98 137 -16 31 -15 35 29 159 24 70 46 129 48 131 3 2 58 14
123 28 66 13 120 24 122 24 2 1 22 -14 45 -33z m-889 -188 l114 -132 -44 -86
-45 -86 -108 -54 -109 -53 -30 21 c-49 36 -130 129 -171 200 -63 108 -64 100
33 206 l86 93 67 10 c38 5 73 11 80 11 6 1 63 -58 127 -130z m497 -169 c7 -18
30 -55 51 -83 34 -43 38 -56 34 -86 -4 -19 -11 -69 -17 -110 -6 -41 -12 -76
-13 -77 -1 -1 -35 -9 -75 -18 -72 -15 -263 -20 -332 -9 -34 6 -37 9 -48 57 -6
28 -14 83 -17 122 -5 67 -4 73 34 140 l38 70 115 7 c63 4 128 9 144 11 69 9
72 8 86 -24z"/>
<path d="M424 8594 c-32 -19 -75 -47 -94 -62 -69 -51 -194 -178 -230 -234 -21
-31 -40 -54 -44 -51 -12 12 -6 144 11 218 9 41 13 78 10 81 -16 16 -38 -10
-54 -63 -30 -103 -21 -262 23 -376 4 -11 -1 -13 -20 -10 -22 5 -26 2 -26 -20
0 -16 7 -28 19 -32 29 -9 44 -31 21 -31 -10 0 -18 4 -17 9 1 5 -3 12 -10 14
-9 3 -12 -68 -10 -314 2 -295 3 -318 19 -317 10 1 16 -2 13 -6 -8 -12 11 -21
29 -14 13 5 12 9 -9 26 -14 10 -30 16 -37 12 -10 -6 -11 -4 -1 7 10 10 16 10
25 1 14 -14 32 -16 24 -4 -3 5 1 9 9 9 11 0 12 -4 4 -13 -7 -9 -4 -17 13 -28
12 -9 18 -16 13 -17 -6 0 -20 -2 -33 -5 -12 -2 -34 3 -47 12 -25 16 -25 16
-25 -14 0 -66 98 -72 166 -10 21 19 21 19 27 -1 6 -22 47 -30 47 -9 0 6 6 3
14 -7 11 -16 17 -17 29 -7 8 7 13 21 10 33 -4 14 -1 18 10 13 27 -10 92 15
124 48 56 60 63 82 113 363 35 201 36 226 10 280 -32 67 -100 105 -188 105
l-44 0 94 98 c52 54 102 116 113 138 31 65 20 180 -19 206 -16 11 -17 11 -82
-28z m3 -74 c-20 -29 -80 -92 -178 -186 -46 -44 -101 -100 -123 -125 l-38 -44
17 40 c35 87 140 205 261 294 71 52 86 57 61 21z m62 -67 c-23 -71 -283 -313
-335 -313 -28 0 8 44 153 185 79 77 154 155 166 175 20 32 22 33 25 12 2 -12
-2 -39 -9 -59z m-50 -341 c47 -23 72 -60 76 -113 l4 -44 -9 44 c-12 56 -37 94
-56 87 -8 -3 -12 -2 -9 3 9 15 -14 24 -79 31 l-61 7 50 2 c30 0 64 -6 84 -17z
m-159 -7 c-14 -8 -32 -14 -40 -14 -9 0 -4 6 10 14 14 8 32 14 40 14 9 0 4 -6
-10 -14z m131 -12 c13 -16 12 -17 -3 -4 -17 13 -22 21 -14 21 2 0 10 -8 17
-17z m-194 -19 c0 -8 -13 -26 -28 -38 -15 -13 -26 -26 -23 -29 3 -2 -7 -2 -21
0 -14 3 -25 9 -25 13 0 5 87 69 96 70 0 0 1 -7 1 -16z m-112 -64 c-3 -5 -14
-10 -23 -9 -14 0 -13 2 3 9 27 11 27 11 20 0z m385 -37 c-11 -17 -11 -17 -6 0
3 10 6 24 7 30 0 9 2 9 5 0 3 -7 0 -20 -6 -30z m7 -115 c-3 -7 -5 -2 -5 12 0
14 2 19 5 13 2 -7 2 -19 0 -25z m-13 -77 c-4 -28 -9 -50 -11 -47 -3 3 -2 28 2
56 4 28 9 49 12 47 2 -3 1 -28 -3 -56z m-17 -98 c-3 -10 -5 -4 -5 12 0 17 2
24 5 18 2 -7 2 -21 0 -30z m-10 -60 c-3 -10 -5 -4 -5 12 0 17 2 24 5 18 2 -7
2 -21 0 -30z m-16 -28 c5 4 9 -1 9 -11 0 -13 -3 -14 -15 -4 -8 7 -14 26 -13
44 l1 31 4 -33 c2 -18 9 -30 14 -27z m-24 -47 c-3 -8 -6 -5 -6 6 -1 11 2 17 5
13 3 -3 4 -12 1 -19z m6 -33 c-3 -9 -8 -14 -10 -11 -3 3 -2 9 2 15 9 16 15 13
8 -4z m-189 -7 c-5 -7 -2 -9 8 -6 10 4 14 0 14 -15 -1 -13 9 -26 24 -34 18 -9
20 -13 8 -13 -10 0 -27 14 -40 30 -20 27 -58 42 -58 22 0 -5 -7 -17 -15 -28
-10 -12 -14 -14 -13 -4 4 21 30 47 53 53 11 2 21 5 23 6 2 0 0 -4 -4 -11z m60
-17 c15 -16 15 -19 2 -24 -11 -4 -13 -1 -9 10 5 12 2 15 -10 10 -11 -4 -14 -2
-10 9 7 18 6 18 27 -5z m56 4 c-7 -9 -15 -13 -19 -10 -3 3 1 10 9 15 21 14 24
12 10 -5z m48 -22 c-14 -18 -77 -47 -85 -39 -2 2 5 7 16 11 12 3 18 11 15 17
-4 6 -2 8 4 5 15 -10 42 3 42 20 0 8 5 11 10 8 8 -5 7 -12 -2 -22z m-248 -53
c-6 -12 -20 -20 -33 -19 -20 1 -20 2 -2 6 11 3 24 11 28 19 13 22 19 16 7 -6z"/>
<path d="M183 8056 c-7 -8 -18 -16 -25 -19 -7 -2 -10 -7 -7 -11 4 -4 20 4 35
18 16 14 25 25 19 25 -5 0 -15 -6 -22 -13z"/>
<path d="M6273 8441 c-148 -118 -556 -493 -635 -584 -73 -83 -131 -163 -157
-214 -18 -36 -19 -43 -6 -53 8 -7 15 -15 15 -19 0 -4 -25 -36 -55 -73 -30 -36
-55 -71 -55 -76 0 -30 349 -207 875 -445 480 -216 574 -257 792 -343 168 -66
197 -73 226 -51 18 13 66 108 87 170 6 21 18 41 26 44 8 3 14 13 14 22 0 10
102 239 226 510 124 271 224 499 222 508 -2 12 -94 49 -313 126 -271 96 -319
110 -384 113 l-74 3 -51 68 c-63 83 -149 154 -241 197 -83 40 -390 136 -433
136 -20 0 -46 -13 -79 -39z m261 -57 c100 -30 212 -72 250 -92 78 -41 172
-123 218 -190 l30 -44 -124 -127 c-218 -220 -398 -434 -560 -663 l-76 -108
-28 58 c-56 116 -194 223 -364 282 -36 13 -69 27 -74 32 -6 4 -20 8 -32 8 -26
0 -235 67 -247 79 -12 12 85 142 185 247 132 138 615 574 636 574 3 0 87 -25
186 -56z m953 -454 c155 -54 289 -102 296 -107 12 -6 -30 -106 -205 -488 -121
-264 -222 -482 -224 -484 -7 -7 -158 71 -242 125 -130 85 -179 113 -246 139
-167 67 -343 73 -536 19 -21 -7 -17 2 35 77 85 122 206 278 318 409 143 167
376 399 412 410 49 14 97 2 392 -100z m-1957 -423 c0 -19 44 -57 129 -111 60
-39 259 -192 296 -228 18 -18 -315 149 -437 219 l-78 45 37 44 c38 45 53 54
53 31z m242 -17 c11 0 350 -273 368 -295 17 -23 19 -23 -118 82 -67 53 -130
95 -338 230 -13 8 -2 7 31 -2 28 -8 53 -15 57 -15z m-110 -27 c155 -90 492
-333 462 -333 -24 0 -140 76 -238 156 -64 52 -158 122 -209 154 -103 67 -111
79 -15 23z m405 -110 c51 -38 106 -99 124 -138 8 -16 6 -15 -7 3 -9 12 -68 63
-130 113 -63 50 -114 93 -114 95 0 9 77 -35 127 -73z m688 -249 c82 -21 179
-69 310 -154 61 -39 143 -87 183 -107 40 -20 71 -38 69 -40 -10 -9 -151 47
-302 122 -238 117 -344 150 -533 162 -51 3 -89 10 -85 14 29 29 248 31 358 3z
m-360 -125 c299 -132 750 -289 838 -291 26 -1 47 -3 47 -5 0 -2 -7 -17 -15
-33 -16 -31 -38 -37 -77 -20 -13 5 -90 36 -173 69 -135 53 -748 320 -785 342
-47 27 25 0 165 -62z m140 56 c101 -10 224 -44 322 -87 52 -22 92 -42 91 -44
-2 -2 -40 8 -83 22 -44 13 -160 42 -258 64 -174 39 -259 67 -172 56 22 -3 67
-8 100 -11z m195 -120 c167 -42 511 -167 497 -181 -10 -11 -537 166 -585 197
-19 11 -27 13 88 -16z"/>
<path d="M11290 8101 c-101 -31 -164 -108 -180 -220 -20 -144 45 -294 199
-461 l51 -55 -2 47 c-1 26 -4 46 -6 43 -5 -5 -52 49 -52 60 0 4 8 -3 18 -15
38 -46 41 -22 41 270 0 255 -1 279 -17 283 -16 4 -16 5 1 6 11 1 17 9 17 26 0
27 -19 31 -70 16z m15 -61 c-27 -12 -43 -12 -25 0 8 5 22 9 30 9 10 0 8 -3 -5
-9z m-53 -22 c-8 -8 -8 -17 -1 -30 6 -11 8 -22 6 -25 -3 -2 -8 5 -12 16 -6 21
-25 29 -25 12 0 -5 -7 -16 -15 -24 -7 -8 -17 -28 -20 -43 -5 -23 -4 -26 5 -14
10 13 11 13 7 0 -2 -8 -10 -14 -16 -12 -7 1 -12 -24 -13 -75 l-2 -78 -3 67
c-2 37 1 85 6 106 10 35 69 112 87 112 4 0 3 -5 -4 -12z m89 -5 c12 -16 12
-17 -1 -7 -8 6 -22 14 -30 17 -13 5 -12 6 1 6 9 1 23 -7 30 -16z m-41 -3 c8
-5 11 -10 5 -10 -5 0 -17 5 -25 10 -8 5 -10 10 -5 10 6 0 17 -5 25 -10z m-79
-63 c-10 -9 -11 -8 -5 6 3 10 9 15 12 12 3 -3 0 -11 -7 -18z m-38 -212 c-3 -9
-8 -14 -10 -11 -3 3 -2 9 2 15 9 16 15 13 8 -4z m17 -53 c0 -15 -2 -15 -10 -2
-13 20 -13 33 0 25 6 -3 10 -14 10 -23z m44 -11 c-3 -3 -10 -7 -15 -7 -5 -1
-11 -2 -14 -3 -3 0 -1 -11 5 -23 11 -22 10 -22 -4 -4 -17 21 -7 43 19 43 8 0
12 -3 9 -6z m31 -91 c-4 -25 -1 -32 17 -40 16 -6 18 -9 6 -9 -9 -1 -25 11 -36
27 -25 36 -37 62 -19 39 18 -22 31 -7 22 26 -5 18 -4 19 5 5 6 -9 8 -31 5 -48z"/>
<path d="M8695 8060 c-31 -34 -1 -68 32 -35 8 8 19 13 24 10 14 -9 11 -32 -6
-39 -21 -8 -19 -33 5 -46 57 -31 37 -86 -27 -74 -32 6 -34 5 -31 -17 6 -44 91
-41 123 4 19 27 19 68 0 93 -9 12 -12 31 -9 51 11 60 -69 99 -111 53z"/>
<path d="M8478 8046 c-12 -6 -24 -20 -26 -30 -3 -14 2 -17 30 -14 30 3 33 0
36 -24 2 -15 -4 -38 -12 -50 -34 -48 -14 -68 66 -68 41 0 56 14 38 35 -8 10
-21 13 -38 8 -22 -5 -24 -4 -17 13 36 85 -10 163 -77 130z"/>
<path d="M8311 8004 c-26 -33 -28 -64 -2 -64 15 0 20 -11 27 -62 8 -53 12 -63
29 -63 18 0 20 5 16 59 -9 153 -26 186 -70 130z"/>
<path d="M10561 7924 c-23 -16 -27 -39 -11 -49 6 -4 17 -2 24 4 19 16 26 3 26
-46 0 -31 5 -45 16 -50 19 -7 104 32 104 47 0 17 -30 23 -56 12 -23 -11 -24
-10 -24 21 0 56 -41 87 -79 61z"/>
<path d="M10484 7828 c-47 -22 -56 -91 -21 -152 27 -48 52 -65 69 -48 9 9 7
18 -11 43 -36 49 -43 84 -20 113 31 39 22 62 -17 44z"/>
<path d="M8036 7362 c-63 -126 -83 -240 -52 -301 14 -26 12 -41 -25 -192 -49
-200 -143 -669 -159 -798 -14 -111 -6 -211 20 -243 47 -59 115 35 164 227 16
61 46 263 78 520 48 393 53 422 76 450 83 100 83 234 -1 357 -18 27 -40 48
-49 48 -12 0 -29 -23 -52 -68z m90 -57 c38 -82 35 -167 -8 -227 -23 -33 -47
-35 -79 -9 -20 16 -24 28 -22 68 1 52 59 223 74 223 6 0 21 -25 35 -55z m-62
-303 c4 -7 -32 -313 -38 -320 -9 -8 -56 12 -56 24 0 30 73 304 81 304 4 0 10
-4 13 -8z m-91 -382 c-6 -22 -23 -38 -23 -21 0 17 12 41 20 41 5 0 6 -9 3 -20z
m33 -80 c-7 -52 -14 -89 -17 -81 -3 8 0 47 7 87 6 41 9 74 7 74 -2 0 -1 5 2
11 13 20 13 4 1 -91z m-56 -1 c-6 -21 -6 -39 2 -53 10 -19 10 -20 -5 -7 -19
15 -21 29 -7 65 13 36 20 32 10 -5z m-30 -140 c-17 -102 -22 -121 -27 -116 -2
3 3 46 12 97 10 50 19 89 22 87 2 -3 -1 -34 -7 -68z m27 29 c-3 -8 -6 -5 -6 6
-1 11 2 17 5 13 3 -3 4 -12 1 -19z m38 -73 c-4 -36 -10 -64 -12 -61 -3 3 -2
35 2 71 4 37 9 64 12 62 3 -3 2 -35 -2 -72z m-24 38 c-12 -20 -14 -14 -5 12 4
9 9 14 11 11 3 -2 0 -13 -6 -23z m-4 -95 c-3 -7 -5 -2 -5 12 0 14 2 19 5 13 2
-7 2 -19 0 -25z m8 -78 c-4 -28 -9 -49 -12 -47 -2 3 -1 28 3 56 4 28 9 50 11
47 3 -3 2 -28 -2 -56z m-78 -5 c-2 -30 -6 -58 -10 -61 -4 -4 -7 -19 -7 -32 0
-14 -3 -23 -6 -20 -5 6 16 168 23 168 2 0 2 -25 0 -55z m58 -102 c-10 -56 -63
-212 -80 -236 -15 -21 -15 -21 -15 6 0 16 4 26 9 23 5 -3 12 1 15 10 4 11 2
15 -8 11 -10 -4 -13 -1 -10 7 3 8 1 17 -5 21 -6 3 -11 11 -11 16 0 6 5 7 12 3
8 -5 9 -2 5 10 -4 10 -3 15 4 11 5 -4 7 -15 4 -25 -3 -11 1 -20 11 -24 13 -5
16 -1 12 23 -2 17 -1 28 4 25 11 -7 30 46 25 68 -3 11 -1 15 5 12 7 -5 9 4 6
24 -2 17 -1 29 4 26 4 -3 8 2 8 10 0 9 3 16 6 16 3 0 3 -17 -1 -37z m-88 -85
c-2 -13 -4 -3 -4 22 0 25 2 35 4 23 2 -13 2 -33 0 -45z m40 0 c-3 -7 -5 -2 -5
12 0 14 2 19 5 13 2 -7 2 -19 0 -25z"/>
<path d="M9352 7414 c-229 -41 -407 -144 -517 -298 -59 -83 -149 -266 -169
-342 -23 -87 -21 -232 4 -329 71 -279 283 -487 577 -567 106 -29 333 -31 444
-5 80 19 178 72 265 144 115 95 240 299 280 458 25 95 25 295 1 385 -70 262
-272 478 -509 547 -94 27 -253 30 -376 7z m264 -84 c2 -30 13 -86 24 -125 27
-89 27 -92 -7 -162 l-28 -58 -166 -11 c-91 -6 -170 -13 -175 -17 -6 -3 -29 13
-50 36 -68 72 -66 65 -45 158 11 46 22 105 26 131 7 53 0 49 145 82 86 20 121
23 203 22 l69 -1 4 -55z m392 -154 c61 -65 90 -107 127 -180 26 -52 45 -101
43 -109 -1 -8 -40 -48 -85 -89 -81 -75 -82 -75 -170 -92 -48 -9 -96 -19 -105
-22 -11 -3 -18 0 -18 9 0 8 -18 37 -40 63 -22 27 -55 86 -75 131 l-34 83 29
62 c17 35 30 68 30 75 0 6 8 14 18 18 9 3 55 34 102 69 47 36 88 65 91 65 4 1
43 -37 87 -83z m-884 -152 c19 -28 48 -63 65 -77 17 -14 31 -29 31 -34 0 -4
-28 -67 -62 -140 l-61 -131 -96 -15 -96 -16 -54 37 c-30 20 -74 55 -98 77
l-45 40 22 55 c33 84 108 224 145 273 l34 44 91 -31 c85 -30 92 -35 124 -82z
m969 -392 c35 -26 74 -54 87 -63 l24 -16 -18 -76 c-21 -89 -86 -224 -145 -301
l-42 -55 -38 14 c-21 7 -61 25 -89 39 -28 14 -58 26 -65 26 -14 0 -68 73 -100
137 -17 31 -16 35 27 158 24 70 47 129 50 132 5 5 185 44 238 52 4 1 36 -20
71 -47z m-907 -177 l113 -129 -45 -87 -45 -86 -110 -53 -109 -53 -34 27 c-60
45 -129 132 -177 221 l-46 85 88 93 c87 90 90 92 151 103 35 7 72 11 83 10 11
0 64 -53 131 -131z m536 -230 l48 -72 -16 -109 c-9 -60 -17 -110 -18 -111 0 0
-36 -8 -78 -17 -77 -16 -272 -20 -333 -7 -24 5 -31 14 -42 51 -8 25 -16 79
-19 120 -5 72 -3 78 33 145 l38 70 153 11 c84 6 156 14 160 18 4 4 11 0 17
-10 5 -9 31 -50 57 -89z m-505 -147 c-3 -8 -6 -5 -6 6 -1 11 2 17 5 13 3 -3 4
-12 1 -19z"/>
<path d="M4685 7350 c-11 -4 -39 -28 -62 -52 -79 -83 -335 -393 -354 -430 -46
-89 -7 -157 124 -218 113 -53 138 -40 329 183 129 149 197 237 222 284 41 80
7 134 -128 199 -94 46 -99 48 -131 34z m81 -65 c12 -9 14 -14 6 -15 -7 0 -10
-4 -7 -10 10 -16 -11 -12 -25 5 -11 13 -10 14 5 9 13 -5 16 -4 11 4 -4 7 -16
12 -27 12 -14 0 -18 -4 -13 -12 6 -10 4 -10 -8 0 -14 11 -19 10 -32 -9 -8 -12
-12 -27 -9 -33 3 -6 3 -8 -2 -4 -11 10 -37 -11 -29 -23 3 -5 2 -8 -3 -7 -5 2
-26 -17 -48 -41 -38 -41 -38 -44 -20 -57 18 -14 18 -14 -1 -14 -10 0 6 -13 39
-30 31 -17 63 -28 69 -24 6 4 8 3 4 -4 -6 -11 31 -28 49 -23 9 3 31 8 45 10 3
1 -2 6 -10 11 -9 6 -10 10 -3 10 16 0 26 -17 13 -25 -6 -4 -8 -11 -5 -16 4 -5
1 -9 -6 -9 -7 0 -9 -3 -6 -7 11 -11 48 30 42 46 -3 8 -3 12 1 8 4 -4 13 -2 21
4 23 20 14 -1 -19 -41 -23 -30 -34 -37 -44 -29 -7 6 -10 18 -7 27 6 15 4 15
-9 4 -14 -11 -32 -5 -118 38 -56 28 -100 54 -98 59 3 7 55 70 137 163 36 41
72 49 107 23z m60 -31 c18 -15 18 -15 -2 -5 -12 6 -24 7 -28 4 -3 -3 -6 -1 -6
5 0 16 12 15 36 -4z m-107 -6 c4 6 11 5 19 -4 11 -12 9 -13 -10 -11 -12 2 -23
9 -24 16 -2 8 -1 8 3 0 3 -7 8 -8 12 -1z m180 -42 c7 -8 11 -23 8 -33 -4 -15
-5 -14 -6 3 -2 31 -26 47 -58 39 -27 -6 -27 -6 -8 8 21 16 41 10 64 -17z
m-174 5 c-9 -8 -36 -10 -30 -2 2 4 11 8 20 8 8 0 13 -3 10 -6z m-93 -93 c-4
-15 -7 -17 -13 -6 -5 7 -4 14 1 16 5 2 6 11 3 20 -4 13 -3 14 5 3 5 -7 7 -22
4 -33z m261 11 c-9 -9 -12 -7 -10 9 1 14 5 18 11 12 7 -7 6 -14 -1 -21z m-300
3 c-10 -10 -20 -17 -22 -16 -6 5 20 34 30 34 5 0 1 -8 -8 -18z m235 -26 c-7
-8 -15 -12 -17 -11 -5 6 10 25 20 25 5 0 4 -6 -3 -14z m47 5 c6 -10 -11 -24
-32 -27 -9 -2 -9 2 0 17 13 21 23 24 32 10z m-240 -49 c-8 -8 -25 10 -19 20 4
6 9 5 15 -3 4 -7 6 -15 4 -17z m-25 -75 l132 -62 -101 -116 c-128 -147 -152
-159 -234 -118 -92 46 -127 100 -99 152 15 28 159 207 167 207 1 0 62 -28 135
-63z"/>
<path d="M4535 7100 c-3 -5 -1 -10 4 -10 6 0 11 5 11 10 0 6 -2 10 -4 10 -3 0
-8 -4 -11 -10z"/>
<path d="M3010 7240 c-20 -13 -19 -105 3 -162 20 -51 82 -114 123 -124 70 -18
108 81 64 171 -31 63 -101 125 -142 125 -18 0 -40 -4 -48 -10z m77 -50 c42
-25 94 -115 91 -155 -4 -45 -35 -44 -79 2 -40 41 -59 87 -59 139 0 39 4 41 47
14z"/>
<path d="M970 7085 c-7 -8 -10 -22 -6 -30 6 -17 36 -21 36 -4 0 5 5 7 10 4 6
-3 10 -26 10 -50 0 -24 5 -47 11 -51 14 -8 86 15 101 33 19 24 -6 40 -42 26
-29 -11 -30 -10 -30 19 0 45 -17 68 -49 68 -16 0 -34 -7 -41 -15z"/>
<path d="M2724 7015 c-3 -8 10 -34 32 -61 l38 -46 -29 -24 c-17 -13 -33 -24
-37 -24 -4 0 -33 36 -64 80 -54 75 -81 94 -91 64 -6 -19 247 -366 264 -362 29
6 24 23 -31 98 l-54 75 26 22 c15 12 32 22 39 23 6 0 32 -27 58 -59 25 -33 52
-67 60 -75 19 -18 49 -10 40 11 -11 31 -220 293 -232 293 -8 0 -16 -7 -19 -15z"/>
<path d="M881 6974 c-12 -15 -21 -41 -21 -58 0 -37 52 -126 74 -126 27 0 28
21 2 59 -29 42 -35 98 -11 107 8 4 15 15 15 25 0 28 -35 24 -59 -7z"/>
<path d="M2965 6925 c-14 -13 -25 -29 -25 -35 0 -19 32 -24 45 -7 28 39 46 17
54 -67 5 -49 10 -61 25 -64 20 -4 86 53 86 74 0 22 -20 26 -45 10 -25 -16 -25
-16 -25 13 0 46 -20 79 -53 91 -38 13 -34 14 -62 -15z"/>
<path d="M1680 6879 c-44 -18 -60 -40 -60 -82 0 -31 6 -45 31 -68 l31 -29 -84
-137 -85 -138 -49 -2 c-232 -12 -404 -136 -475 -343 -33 -97 -31 -256 4 -365
87 -267 282 -404 554 -393 93 4 109 8 177 41 173 86 276 264 276 477 0 107
-20 190 -70 298 l-40 85 44 76 c24 42 59 106 77 142 l32 66 46 -4 c52 -5 86
17 97 62 15 62 -18 93 -229 215 -169 97 -229 118 -277 99z m86 -53 c46 -16
235 -122 317 -178 43 -29 57 -45 57 -63 0 -33 -29 -47 -67 -33 -17 6 -37 9
-46 5 -9 -3 -39 -52 -67 -109 -61 -121 -86 -165 -113 -195 l-20 -22 41 -78
c116 -224 116 -430 1 -603 -112 -167 -321 -229 -529 -155 -152 53 -263 188
-311 373 -60 237 35 464 236 563 58 28 81 34 159 37 50 2 98 8 107 13 17 9
198 297 206 328 3 13 -6 25 -31 39 -48 28 -56 50 -27 74 28 22 37 22 87 4z"/>
<path d="M1711 6366 c-18 -21 -9 -66 14 -82 46 -30 99 40 60 80 -20 20 -59 21
-74 2z"/>
<path d="M1185 6219 c-88 -106 -116 -256 -75 -414 44 -171 127 -291 238 -343
50 -24 69 -27 152 -26 80 0 105 5 161 28 75 31 185 117 218 169 43 69 46 65
-244 314 -253 217 -368 303 -406 303 -9 0 -29 -14 -44 -31z m100 -52 c26 -15
39 -29 37 -40 -2 -12 3 -16 16 -14 23 3 252 -190 251 -212 0 -11 -3 -9 -9 5
-12 29 -30 40 -41 23 -5 -9 -9 -10 -9 -2 0 6 -10 9 -22 7 -19 -4 -20 -3 -5 4
27 11 26 16 -12 48 -19 16 -45 38 -57 49 -40 36 -52 44 -58 38 -3 -3 0 -13 7
-22 10 -14 10 -14 -5 -3 -9 7 -15 22 -13 33 4 17 -1 21 -22 18 -5 -1 -7 -6 -5
-12 1 -7 -4 -4 -11 6 -17 20 -31 23 -24 4 3 -8 -1 -14 -9 -14 -14 0 -10 11 13
39 16 18 2 35 -19 22 -6 -4 -8 -3 -5 3 4 6 -5 15 -20 22 -24 11 -29 9 -50 -16
-14 -15 -21 -21 -17 -13 9 20 36 50 43 50 3 0 24 -11 46 -23z m-89 -66 c0 -11
-5 -19 -10 -18 -12 2 -24 -37 -25 -85 -1 -20 -6 -40 -11 -43 -7 -4 -9 2 -6 17
3 12 8 40 11 61 11 65 41 115 41 68z m229 -70 c3 -5 0 -13 -6 -17 -8 -5 -9 -3
-4 6 6 10 4 12 -9 7 -10 -4 -15 -3 -11 3 8 13 22 13 30 1z m-48 -16 c0 -8 -4
-12 -9 -9 -5 3 -6 10 -3 15 9 13 12 11 12 -6z m180 -117 c-3 -8 -6 -5 -6 6 -1
11 2 17 5 13 3 -3 4 -12 1 -19z m-391 -25 c4 -21 6 -47 5 -58 -2 -17 0 -17 8
-5 8 12 11 7 11 -22 0 -20 2 -45 5 -55 3 -10 -2 -3 -10 15 -19 41 -45 162 -35
162 4 0 11 -17 16 -37z m489 -15 l20 -23 -21 18 c-11 9 -23 15 -25 12 -3 -2
-10 5 -17 16 -12 18 -11 19 5 11 10 -6 27 -21 38 -34z m193 -174 c2 -8 -4 -17
-12 -20 -9 -3 -16 -13 -16 -20 0 -8 -8 -18 -17 -21 -9 -4 -28 -19 -42 -34 -32
-34 -52 -40 -56 -16 -3 13 0 15 9 8 18 -15 56 14 51 38 -2 11 6 27 18 38 l22
18 -19 -22 c-24 -28 -6 -31 19 -3 10 11 15 20 10 20 -4 0 -2 7 5 15 7 8 10 16
6 16 -3 1 -10 3 -16 4 -5 1 -16 3 -22 4 -9 1 -8 4 2 11 15 9 14 11 -12 14 -7
1 -12 7 -10 14 2 12 -1 13 -48 17 -41 4 -41 5 -35 15 4 7 13 7 26 0 24 -13 25
-3 2 24 -10 11 16 -8 57 -43 41 -35 76 -70 78 -77z m-72 1 c-1 -8 -5 -17 -8
-21 -5 -4 -4 16 1 34 3 9 9 -1 7 -13z m-547 -2 c-3 -18 14 -52 22 -47 5 3 9 3
9 0 0 -3 -4 -7 -10 -11 -11 -7 -42 49 -33 59 8 8 13 8 12 -1z m69 -88 c27 2
28 -1 3 -14 -14 -8 -23 -6 -37 12 -11 12 -12 17 -4 11 8 -6 25 -10 38 -9z m53
-66 c11 -6 29 -12 39 -14 11 -2 28 -9 37 -15 15 -9 13 -10 -12 -5 -41 9 -107
47 -113 65 -4 11 -1 10 12 -3 10 -9 27 -22 37 -28z m344 11 c-4 -6 -10 -8 -15
-5 -5 3 -12 0 -15 -5 -13 -21 -135 -56 -135 -39 0 5 14 9 30 9 17 0 30 4 30
10 0 5 6 7 13 5 6 -3 26 4 42 15 32 21 60 27 50 10z m-180 -50 c-3 -5 -18 -9
-33 -9 l-27 1 30 8 c17 4 31 8 33 9 2 0 0 -3 -3 -9z"/>
<path d="M1825 5680 c-3 -5 -1 -10 4 -10 6 0 11 5 11 10 0 6 -2 10 -4 10 -3 0
-8 -4 -11 -10z"/>
<path d="M1600 6208 c-25 -41 -25 -70 -2 -91 34 -31 85 -20 108 24 27 53 -1
99 -60 99 -19 0 -32 -9 -46 -32z m57 -43 c-4 -8 -12 -15 -19 -14 -10 0 -10 2
0 6 6 2 12 12 12 21 0 8 3 13 6 9 4 -3 4 -13 1 -22z"/>
<path d="M1744 6086 c-42 -19 -63 -69 -43 -105 32 -57 108 -62 138 -10 18 33
8 71 -27 104 -31 29 -28 28 -68 11z m39 -65 c-2 -6 2 -11 8 -11 5 0 7 -4 4
-10 -8 -13 -45 -13 -45 0 0 5 8 7 18 4 16 -5 16 -5 0 9 -10 8 -15 17 -11 21
10 9 28 0 26 -13z"/>
<path d="M5514 6856 c-3 -9 -4 -22 -1 -29 3 -10 -45 -44 -146 -104 -235 -141
-299 -173 -318 -163 -12 7 -20 5 -29 -5 -10 -12 -5 -21 27 -50 53 -49 141 -94
258 -131 66 -21 99 -36 98 -45 0 -8 -11 -50 -22 -93 -26 -99 -26 -152 -1 -250
26 -104 73 -187 145 -260 100 -101 204 -150 345 -162 l77 -7 -25 -76 c-21 -64
-25 -96 -26 -201 -1 -103 2 -131 17 -158 21 -39 42 -37 42 2 -1 24 8 32 69 63
96 48 218 125 294 185 45 35 67 47 75 39 8 -6 18 -6 27 -1 13 8 12 14 -4 45
-45 83 -174 141 -327 147 -40 1 -69 6 -69 13 0 5 9 39 21 75 30 94 36 221 15
295 -48 167 -182 272 -448 351 -68 21 -124 38 -125 39 -2 1 13 38 32 82 19 44
42 109 51 144 27 104 8 253 -33 267 -7 2 -16 -3 -19 -12z m24 -127 c2 -21 -7
-29 -70 -61 -95 -49 -245 -134 -282 -160 -23 -16 -33 -18 -52 -9 -13 6 -24 14
-24 18 0 5 34 26 75 47 41 22 132 74 202 117 70 43 133 76 138 75 6 -1 11 -13
13 -27z m-14 -113 c-5 -21 -36 -47 -126 -107 -116 -78 -121 -80 -151 -68 -18
7 -35 15 -40 19 -4 3 48 37 115 75 68 37 141 78 163 91 22 12 41 21 43 19 2
-1 0 -15 -4 -29z m-61 -166 c-28 -65 -41 -71 -97 -47 l-29 13 74 47 c41 25 75
47 76 47 1 0 -10 -27 -24 -60z m32 -129 c18 -7 17 -10 -15 -29 -19 -12 -36
-20 -37 -18 -6 6 16 56 24 55 5 0 17 -4 28 -8z m134 -35 l34 -12 -77 -48 c-42
-26 -99 -65 -126 -87 l-50 -39 0 45 0 45 83 55 c45 29 87 54 92 54 6 0 25 -6
44 -13z m141 -56 c22 -11 40 -22 40 -23 0 -2 -42 -24 -92 -50 -79 -40 -137
-79 -269 -175 -16 -12 -19 -10 -27 20 -6 22 -5 38 2 47 27 34 274 201 299 201
4 0 26 -9 47 -20z m140 -95 c18 -19 32 -36 29 -38 -14 -11 -419 -258 -431
-262 -21 -8 -61 74 -45 93 53 64 345 239 403 242 5 0 25 -16 44 -35z m78 -100
c7 -14 12 -28 12 -30 0 -6 -141 -97 -295 -190 l-127 -76 -24 22 c-14 13 -21
26 -15 32 11 11 424 266 432 267 3 0 11 -11 17 -25z m38 -132 c5 -36 3 -49 -7
-55 -8 -5 -70 -39 -139 -77 -69 -37 -141 -77 -160 -89 l-36 -21 -33 20 c-19
12 -30 24 -25 29 5 5 68 44 139 87 72 43 155 96 185 116 30 20 58 37 62 37 4
0 10 -21 14 -47z m-16 -145 c-4 -18 -12 -32 -18 -30 -7 1 -51 -23 -98 -53 -75
-49 -90 -55 -121 -49 -19 4 -31 10 -26 15 10 10 256 149 264 149 4 0 3 -15 -1
-32z m-31 -116 c-10 -29 -15 -32 -52 -32 -22 0 -37 3 -33 8 11 11 91 60 94 57
1 -1 -3 -16 -9 -33z m111 -90 c0 -5 -24 -22 -52 -38 -69 -38 -69 -38 -63 -22
25 70 22 68 70 68 25 0 45 -4 45 -8z m154 -22 c17 -6 7 -15 -55 -57 -41 -27
-113 -73 -161 -101 l-88 -52 0 28 c0 54 10 67 86 106 41 22 89 52 107 68 32
28 54 29 111 8z m91 -51 c19 -20 18 -20 -10 -44 -109 -90 -365 -243 -385 -230
-5 3 -10 18 -10 33 1 24 13 34 103 85 56 32 140 84 187 116 47 32 88 59 91 60
3 0 14 -8 24 -20z"/>
<path d="M218 6840 c-10 -6 -42 -44 -73 -85 -31 -40 -76 -96 -100 -123 -39
-43 -45 -56 -45 -95 0 -24 7 -64 15 -88 12 -32 13 -45 4 -53 -9 -8 -10 -8 -5
1 4 7 3 20 -2 29 -6 11 -9 2 -10 -31 -2 -35 1 -44 10 -39 10 6 10 5 2 -7 -14
-16 -16 -199 -3 -199 5 0 7 13 5 30 -2 16 1 27 6 24 5 -3 7 -12 4 -20 -3 -8
-1 -14 3 -14 5 0 12 6 14 13 4 8 6 8 6 0 1 -6 -11 -21 -25 -32 -25 -20 -25
-21 -23 -145 1 -69 5 -126 9 -126 4 0 12 -17 18 -37 7 -21 29 -72 49 -114 l38
-76 -41 21 c-23 12 -36 24 -30 28 6 4 14 2 18 -5 13 -21 17 -2 4 23 -7 14 -19
24 -28 22 -22 -3 -28 8 -17 33 9 18 9 18 5 -2 -4 -23 8 -31 18 -14 5 7 -30
101 -38 101 -1 0 -3 -61 -4 -135 -1 -134 -1 -134 25 -155 33 -25 48 -21 48 14
-1 14 4 24 10 22 112 -49 120 -34 57 106 -69 155 -86 200 -108 291 -17 76 -17
77 2 91 10 8 20 13 22 12 1 -2 10 -32 18 -67 37 -147 134 -307 231 -380 119
-90 177 -93 128 -7 -14 23 -25 48 -25 53 0 6 21 9 50 7 40 -3 50 -1 50 12 0 8
-40 55 -89 103 -118 117 -183 236 -209 384 l-9 50 143 110 c79 61 149 120 155
131 28 52 -15 194 -79 261 -58 62 -164 101 -204 77z m95 -54 c68 -29 136 -125
152 -216 5 -31 2 -39 -27 -66 -40 -38 -312 -244 -321 -244 -4 0 -7 13 -7 28 0
40 -27 139 -55 200 l-24 53 75 91 c41 49 87 108 101 129 28 43 51 49 106 25z
m-264 -455 c1 -38 -10 -18 -14 25 -3 29 -2 34 5 19 5 -11 9 -31 9 -44z m12
-79 c3 -46 -5 -62 -23 -44 -9 9 -9 15 0 24 7 7 12 25 12 42 0 43 9 27 11 -22z
m155 -223 c11 -22 12 -34 4 -47 -11 -16 -11 -16 -6 1 3 9 3 24 -1 33 -5 13 -8
13 -15 2 -6 -9 -7 -6 -3 10 3 12 2 22 -3 22 -5 0 -10 10 -10 23 -1 25 -40 139
-41 119 -1 -7 -5 -10 -11 -7 -5 3 -10 -1 -10 -10 0 -9 4 -14 8 -11 4 2 9 -5 9
-16 2 -20 1 -20 -12 -2 -20 27 -18 39 7 56 22 15 23 14 45 -64 13 -44 30 -93
39 -109z m-88 46 c0 -16 -2 -15 -8 5 -4 14 -8 34 -8 45 0 16 2 15 8 -5 4 -14
8 -34 8 -45z m22 -66 c0 -9 9 -24 21 -35 12 -11 18 -26 15 -37 -6 -23 3 -49
14 -42 4 3 7 -1 6 -8 -2 -20 17 -24 20 -3 1 10 7 23 13 29 8 8 6 17 -7 31 -10
12 -12 16 -3 11 11 -6 13 -4 8 11 -7 19 -7 19 8 0 8 -10 12 -22 10 -27 -3 -4
-1 -9 4 -11 13 -4 81 -96 81 -109 0 -5 4 -8 8 -5 5 3 16 -3 24 -14 15 -17 15
-19 -2 -23 -24 -6 -30 -54 -11 -87 8 -14 -18 7 -56 47 -83 84 -135 167 -127
203 4 18 3 21 -4 11 -7 -10 -14 -1 -26 35 -9 26 -16 52 -16 58 0 17 20 -17 20
-35z m75 -78 c3 -5 2 -12 -3 -15 -5 -3 -9 1 -9 9 0 17 3 19 12 6z m-185 -215
c-7 -7 -14 -6 -21 1 -9 9 -7 12 9 10 14 -1 18 -5 12 -11z m-23 -58 c-3 -8 -6
-5 -6 6 -1 11 2 17 5 13 3 -3 4 -12 1 -19z"/>
<path d="M239 5899 c-8 -17 -8 -20 1 -14 7 4 5 -4 -4 -17 -16 -25 -15 -27 18
-66 45 -55 66 -75 66 -65 0 4 5 1 10 -7 8 -11 9 -2 6 30 -3 27 -2 39 3 31 5
-8 11 -9 15 -3 3 5 -1 12 -9 15 -8 4 -23 -5 -35 -21 -21 -26 -21 -26 0 11 21
36 21 39 5 57 -10 11 -22 17 -28 13 -6 -3 -7 -1 -3 5 7 12 -13 52 -26 52 -4 0
-12 -10 -19 -21z m39 -52 c10 4 13 2 8 -5 -9 -15 -43 -11 -43 5 0 9 4 10 10 4
5 -5 16 -7 25 -4z m-8 -37 c0 -5 -2 -10 -4 -10 -3 0 -8 5 -11 10 -3 6 -1 10 4
10 6 0 11 -4 11 -10z m23 -15 c-3 -9 -8 -14 -10 -11 -3 3 -2 9 2 15 9 16 15
13 8 -4z"/>
<path d="M11265 6561 c-42 -19 -95 -72 -95 -96 0 -17 -259 -145 -365 -180 -44
-15 -88 -34 -99 -43 -49 -45 -58 -109 -26 -195 36 -95 96 -157 153 -157 28 0
91 28 139 61 33 24 48 24 48 0 0 -65 46 -67 191 -7 13 6 18 -2 23 -39 10 -62
39 -144 71 -199 51 -87 53 -84 53 109 0 96 -4 178 -9 181 -5 3 -9 13 -9 22 0
13 2 14 9 4 4 -8 9 38 10 106 2 106 -1 127 -22 178 -24 59 -71 136 -82 134 -3
0 -13 3 -22 9 -15 8 -13 13 14 40 35 35 54 39 74 14 13 -15 12 -15 -8 -5 -28
15 -36 15 -27 0 4 -6 3 -8 -2 -5 -6 3 -16 1 -24 -4 -13 -8 -13 -10 0 -20 13
-9 12 -10 -3 -5 -12 4 -17 2 -14 -6 2 -7 9 -12 16 -11 6 2 17 -10 26 -27 8
-16 21 -28 28 -26 6 1 9 1 5 -1 -4 -3 -2 -15 4 -29 9 -18 14 -21 20 -12 6 9 7
5 3 -9 -3 -13 -2 -31 4 -40 7 -14 10 -8 9 27 0 25 -5 48 -12 52 -8 6 -7 8 2 8
10 0 13 17 11 64 -2 49 -5 63 -16 59 -7 -3 -13 0 -13 6 0 6 7 11 15 11 9 0 15
9 15 25 0 21 -5 25 -27 25 -16 0 -46 -9 -68 -19z m-37 -176 c37 -31 68 -104
89 -207 l17 -82 -48 -42 c-52 -48 -145 -96 -189 -98 -27 -1 -30 3 -47 56 -10
32 -32 80 -50 107 -32 51 -102 121 -120 121 -31 0 2 22 98 63 59 26 127 60
152 76 56 37 61 37 98 6z m-380 -179 c39 -21 107 -94 130 -142 l21 -40 -42
-28 -42 -27 -7 55 c-12 91 -45 139 -95 139 -34 0 -73 -44 -73 -81 0 -32 34
-92 52 -92 7 1 24 7 38 15 35 20 40 19 40 -11 0 -33 -17 -64 -35 -64 -26 0
-74 51 -99 105 -32 67 -35 136 -6 165 24 24 79 26 118 6z m-14 -109 c8 -12 6
-21 -8 -36 -23 -25 -36 -19 -36 18 0 44 22 53 44 18z m478 -104 c-11 -16 -22
-37 -25 -48 -4 -17 -5 -16 -6 4 0 14 9 35 21 48 29 31 34 29 10 -4z m-1 -118
c5 3 6 -1 3 -9 -7 -18 14 -86 27 -86 5 0 9 -10 8 -22 -1 -29 -45 63 -52 107
-2 17 -2 24 0 17 3 -7 9 -10 14 -7z m33 -40 c3 -8 1 -15 -3 -15 -5 0 -11 7
-15 15 -3 8 -1 15 3 15 5 0 11 -7 15 -15z"/>
<path d="M3510 6304 c-132 -28 -272 -90 -396 -175 -99 -68 -117 -90 -105 -121
5 -13 67 -79 138 -145 122 -115 221 -202 593 -518 91 -76 237 -210 325 -297
88 -87 168 -158 177 -158 47 0 173 214 208 355 23 91 28 277 10 360 -59 272
-249 542 -454 647 -128 65 -335 87 -496 52z m276 -35 c237 -33 424 -188 555
-462 60 -127 82 -221 82 -362 1 -139 -17 -222 -70 -330 -44 -90 -112 -180
-125 -167 -6 6 -5 17 4 31 11 18 11 23 -1 31 -9 5 -22 5 -32 0 -20 -11 -63 29
-54 52 7 18 -20 43 -35 33 -6 -4 -20 1 -31 11 -19 17 -19 18 13 51 30 31 31
34 15 50 -16 16 -19 15 -50 -15 l-34 -33 -24 20 c-19 16 -22 22 -11 32 18 19
15 49 -6 49 -10 0 -23 -5 -29 -11 -9 -9 -18 -6 -37 9 -22 17 -24 21 -11 32 34
28 4 60 -33 35 -17 -13 -21 -12 -35 3 -8 9 -17 26 -19 37 -2 13 -11 20 -25 20
-12 0 -35 10 -50 22 l-28 21 35 36 c32 34 33 37 18 53 -16 15 -19 14 -54 -21
l-37 -37 -23 22 c-20 18 -21 23 -9 36 8 7 12 20 9 28 -7 17 -30 20 -39 5 -9
-14 -27 -12 -49 5 -19 15 -19 15 -1 29 12 8 16 19 12 31 -7 17 -19 17 -58 1
-9 -4 -25 1 -39 12 -20 16 -21 21 -9 40 20 32 -1 51 -34 29 -23 -15 -26 -15
-41 2 -22 24 -21 25 20 71 20 21 33 44 29 50 -13 21 -45 9 -76 -30 l-33 -41
-25 25 -25 25 24 19 c15 12 21 25 17 35 -8 21 -31 22 -47 2 -14 -17 -46 -20
-55 -4 -4 6 3 21 15 34 36 39 -2 64 -42 28 -17 -15 -20 -15 -43 7 l-25 24 21
22 c34 37 -3 63 -41 29 -15 -14 -19 -13 -35 5 -23 26 -15 35 92 106 127 85
273 141 421 163 82 12 111 12 198 0z"/>
<path d="M3570 6119 c-57 -11 -140 -52 -169 -83 l-24 -25 28 -33 c169 -203
759 -788 796 -788 32 0 60 124 60 260 0 196 -62 340 -206 486 -102 103 -189
154 -310 179 -78 16 -109 17 -175 4z m178 -54 c276 -65 490 -365 468 -655 -7
-87 -23 -153 -36 -148 -42 14 -730 717 -730 745 0 14 70 53 115 64 49 12 116
10 183 -6z"/>
<path d="M7113 6248 c-13 -16 12 -337 28 -353 13 -12 39 19 39 47 0 30 28 76
51 83 14 5 27 1 38 -10 15 -15 12 -20 -37 -63 -51 -46 -62 -65 -42 -77 12 -8
94 47 115 77 21 31 19 74 -5 98 -24 24 -91 27 -110 5 -7 -8 -16 -15 -20 -15
-4 0 -10 44 -14 98 -7 99 -22 137 -43 110z"/>
<path d="M6605 6176 c-108 -47 -159 -177 -84 -216 47 -25 123 16 147 80 l10
25 7 -30 c14 -60 37 -125 46 -131 6 -3 16 -1 24 6 11 9 10 20 -6 65 -11 33
-19 81 -19 121 0 57 -3 67 -20 71 -11 3 -20 9 -20 14 0 13 -50 10 -85 -5z m28
-98 c-34 -66 -41 -73 -68 -73 -23 0 -31 5 -33 22 -5 37 84 120 131 123 4 0 -9
-33 -30 -72z"/>
<path d="M6934 6175 c-4 -8 -3 -35 0 -58 l7 -43 -38 -10 c-51 -12 -51 -38 -1
-42 l37 -3 3 -57 c3 -49 6 -57 23 -57 18 0 20 8 23 61 3 60 4 62 33 68 42 8
36 40 -9 44 -28 3 -32 7 -32 32 0 59 -32 103 -46 65z"/>
<path d="M10135 5728 c-15 -41 -35 -204 -35 -281 0 -112 19 -268 34 -284 8 -8
24 -9 56 -3 25 5 114 19 198 30 175 24 182 26 182 50 0 48 -206 318 -329 430
-76 70 -98 81 -106 58z m72 -190 c19 -56 56 -149 83 -205 55 -116 58 -107 -51
-118 -63 -7 -67 -6 -74 15 -11 34 -22 178 -19 240 5 94 16 182 21 177 2 -3 20
-52 40 -109z m152 -63 c63 -76 156 -213 150 -219 -2 -2 -30 -8 -63 -13 l-59
-10 -47 101 c-26 55 -62 142 -80 191 l-31 90 36 -35 c21 -19 63 -66 94 -105z"/>
<path d="M2772 5588 c-15 -15 -16 -45 -1 -53 5 -4 19 1 30 11 15 14 22 15 32
5 9 -9 7 -16 -13 -31 -20 -15 -22 -20 -11 -34 7 -9 20 -16 27 -16 16 0 29 -43
19 -60 -4 -6 -22 -10 -41 -8 -44 3 -67 -18 -40 -38 33 -23 74 -17 108 16 25
26 29 36 24 62 -3 17 -12 38 -18 46 -7 8 -11 29 -10 47 2 20 -3 39 -13 49 -19
19 -76 21 -93 4z"/>
<path d="M2542 5564 c-31 -22 -22 -39 19 -39 28 0 35 -4 37 -24 2 -13 -6 -37
-18 -53 -27 -36 -21 -53 20 -62 49 -9 76 -7 89 7 14 18 -5 37 -37 37 -20 0
-22 3 -15 23 15 42 8 89 -16 109 -28 22 -50 23 -79 2z"/>
<path d="M2380 5520 c-25 -35 -20 -65 9 -57 16 4 19 -3 23 -54 5 -64 20 -91
39 -72 8 8 9 40 3 110 -8 89 -11 98 -30 101 -15 2 -29 -7 -44 -28z"/>
<path d="M8462 5440 c-38 -23 -82 -107 -82 -156 0 -34 19 -55 90 -100 25 -15
52 -36 60 -45 8 -10 193 -125 410 -257 217 -131 461 -281 542 -333 363 -232
412 -255 618 -284 132 -18 149 -19 156 0 7 16 -118 224 -169 282 -19 21 -70
53 -141 87 -150 71 -812 471 -1130 682 -227 151 -280 169 -354 124z m40 -46
c-12 -8 -19 -20 -16 -26 4 -6 2 -8 -4 -4 -6 4 -12 -3 -14 -16 -3 -20 -4 -21
-10 -5 -8 20 30 67 54 67 7 0 2 -7 -10 -16z m62 7 c4 -5 -3 -7 -14 -4 -23 6
-26 13 -6 13 8 0 17 -4 20 -9z m93 -48 c-7 -6 -67 22 -72 35 -3 8 9 5 35 -9
22 -12 38 -24 37 -26z m-67 2 c5 3 11 1 14 -4 4 -5 -2 -8 -11 -7 -9 2 -18 8
-19 15 -1 6 0 7 3 1 2 -5 9 -8 13 -5z m60 -20 c0 -1 -8 -9 -18 -18 -15 -14
-19 -15 -19 -2 0 8 5 11 10 8 6 -4 8 0 4 10 -4 11 -2 14 9 10 7 -3 14 -6 14
-8z m-50 -64 c-5 -10 -17 -24 -27 -32 -16 -13 -17 -13 -4 4 21 27 9 28 -22 1
-25 -21 -22 -30 6 -25 5 1 6 -3 2 -9 -6 -10 -42 4 -80 34 -18 14 -17 14 19 5
36 -10 41 -9 69 20 22 21 28 34 21 43 -5 8 -1 5 8 -5 13 -13 15 -24 8 -36z
m340 -91 c423 -268 893 -550 986 -591 24 -11 44 -22 44 -25 0 -3 -7 -19 -16
-35 -18 -37 -18 -37 -131 39 -220 147 -680 430 -973 597 -192 109 -188 106
-164 138 11 14 24 22 29 19 6 -3 107 -67 225 -142z m-498 105 c3 -13 1 -22 -3
-19 -9 5 -13 44 -5 44 2 0 6 -11 8 -25z m316 -121 c211 -120 622 -370 877
-533 138 -89 256 -165 263 -169 11 -7 10 -17 -7 -51 l-21 -41 -43 21 c-23 12
-121 72 -217 134 -187 119 -448 280 -807 495 l-221 133 25 38 c14 22 28 39 30
39 2 0 57 -30 121 -66z m1315 -670 c18 -25 42 -61 52 -80 18 -33 18 -35 -1
-69 -22 -41 -14 -39 -101 -21 -123 26 -119 17 -60 124 28 50 56 92 64 92 7 0
28 -21 46 -46z"/>
<path d="M5197 5435 c-65 -7 -122 -16 -125 -20 -4 -4 -9 -66 -12 -138 -5 -128
-5 -131 -20 -94 -16 42 -50 53 -50 15 1 -46 63 -148 90 -148 16 0 18 14 25
170 4 85 8 156 9 157 1 1 64 8 140 16 134 14 165 24 152 46 -9 13 -55 12 -209
-4z"/>
<path d="M5226 5324 c-20 -19 -20 -28 0 -45 13 -10 17 -10 24 1 5 8 12 11 16
7 4 -4 2 -13 -4 -19 -20 -20 -13 -37 16 -40 38 -4 42 -41 8 -64 -31 -19 -35
-54 -7 -54 28 0 81 54 81 83 0 13 -10 37 -22 52 -12 16 -24 38 -25 49 -7 45
-56 62 -87 30z"/>
<path d="M571 5239 c-42 -9 -63 -29 -51 -48 7 -13 14 -13 48 -2 22 8 51 11 64
8 44 -11 112 -65 246 -193 l133 -127 -31 -19 c-17 -10 -39 -32 -48 -48 -19
-33 -28 -36 -56 -15 -27 21 -65 19 -103 -5 l-33 -20 -15 24 c-18 27 -87 76
-107 76 -32 0 -90 -23 -118 -46 l-30 -26 -55 48 c-256 228 -319 271 -380 260
-31 -6 -35 -11 -35 -36 0 -28 2 -29 24 -19 14 7 36 9 50 5 36 -9 165 -109 274
-213 l94 -88 1 -62 c3 -94 55 -152 145 -161 95 -9 172 57 172 148 0 41 4 47
36 68 l35 23 34 -21 c19 -12 42 -34 51 -49 26 -44 79 -74 139 -79 90 -7 128
12 150 74 24 70 -19 151 -94 175 -23 7 -74 48 -136 108 -108 104 -212 195
-261 229 -39 27 -100 40 -143 31z m548 -424 c16 -8 34 -28 41 -44 38 -94 -73
-144 -171 -78 -47 31 -48 60 -6 102 39 39 86 46 136 20z m-455 -25 c81 -72 66
-179 -31 -211 -64 -21 -145 43 -145 113 0 49 25 92 64 111 48 24 73 21 112
-13z"/>
<path d="M7325 5174 c-176 -49 -497 -157 -920 -312 -425 -156 -476 -181 -526
-261 -52 -81 -35 -151 97 -412 35 -70 82 -174 103 -231 68 -180 86 -213 131
-233 64 -29 144 -23 252 21 340 135 1167 492 1253 539 89 49 143 100 156 146
11 37 10 43 -25 106 -74 136 -125 251 -171 383 -96 278 -141 311 -350 254z
m183 -30 c38 -26 69 -85 117 -225 25 -74 81 -206 125 -295 44 -88 80 -167 80
-177 0 -29 -70 -85 -169 -136 -97 -50 -698 -310 -1065 -461 -232 -95 -285
-109 -346 -91 -39 11 -44 18 -75 84 -18 40 -46 110 -63 157 -16 47 -63 150
-104 230 -92 182 -124 273 -108 315 23 61 77 102 201 153 260 107 1046 381
1242 432 132 34 136 35 165 14z"/>
<path d="M7385 5008 c-108 -63 -115 -203 -12 -251 45 -22 62 -21 113 4 87 42
107 153 40 226 -41 45 -87 52 -141 21z"/>
<path d="M7130 4954 c0 -9 34 -81 76 -161 42 -79 74 -147 71 -149 -13 -13
-350 -145 -360 -141 -7 3 -41 70 -76 151 -49 110 -69 146 -83 146 -30 0 -22
-31 46 -180 63 -138 64 -141 43 -149 -218 -82 -332 -120 -338 -114 -4 4 -32
69 -63 143 -52 129 -77 164 -92 127 -3 -8 20 -76 52 -151 31 -77 53 -141 48
-146 -5 -4 -76 -34 -158 -66 -81 -32 -150 -64 -153 -72 -15 -37 19 -31 167 28
84 33 159 60 167 58 7 -2 41 -63 75 -137 60 -130 79 -154 100 -133 7 7 -11 55
-57 152 -36 78 -65 143 -63 145 8 7 341 125 351 124 7 0 41 -59 77 -131 64
-128 81 -151 102 -130 7 7 -11 52 -58 145 -38 75 -66 138 -64 140 8 7 363 147
365 145 1 -2 28 -59 60 -128 66 -145 70 -149 90 -129 13 12 7 30 -45 143 -33
71 -60 131 -60 135 0 3 61 37 135 74 104 52 135 73 135 88 0 10 -6 19 -14 19
-8 0 -70 -29 -138 -65 -69 -36 -130 -65 -136 -65 -6 0 -45 68 -88 150 -57 113
-81 150 -95 150 -11 0 -19 -7 -19 -16z"/>
<path d="M6978 4869 c-119 -61 -119 -221 -1 -260 116 -38 217 98 157 213 -29
57 -98 77 -156 47z m102 -54 c27 -24 34 -79 15 -114 -27 -53 -82 -67 -128 -31
-51 40 -42 104 21 146 36 24 65 24 92 -1z"/>
<path d="M6549 4717 c-74 -50 -99 -129 -59 -194 69 -113 250 -57 250 77 0 111
-104 176 -191 117z m120 -53 c30 -38 28 -98 -4 -129 -54 -55 -145 -19 -145 58
1 79 104 128 149 71z"/>
<path d="M7547 4616 c-81 -43 -111 -132 -67 -203 87 -144 301 -16 233 138 -24
53 -41 68 -88 79 -28 6 -44 3 -78 -14z"/>
<path d="M6155 4585 c-71 -38 -100 -87 -92 -154 4 -36 13 -52 41 -78 31 -28
43 -33 87 -33 46 0 55 4 89 38 48 48 59 96 36 156 -9 24 -25 51 -36 61 -27 24
-89 29 -125 10z m32 -55 c-14 -11 -30 -20 -37 -20 -6 0 -8 -5 -4 -12 4 -6 3
-8 -3 -5 -25 16 -31 -57 -7 -93 l16 -25 -21 24 c-38 42 -24 97 32 131 42 26
57 26 24 0z m68 -10 c26 -28 15 -31 -14 -3 -13 13 -20 23 -14 23 5 0 18 -9 28
-20z m-10 -20 c3 -6 -1 -7 -9 -4 -18 7 -21 14 -7 14 6 0 13 -4 16 -10z m-102
-35 c-3 -9 -8 -14 -10 -11 -3 3 -2 9 2 15 9 16 15 13 8 -4z m110 -2 c-4 -11
-3 -14 6 -9 10 6 9 3 0 -13 -16 -25 -32 -6 -18 21 12 23 21 24 12 1z m-95 -29
c0 -17 -3 -22 -8 -13 -5 6 -6 18 -3 26 8 19 11 16 11 -13z m83 -44 c-13 -11
-37 -20 -55 -19 -17 0 -25 3 -17 6 11 5 11 7 0 14 -9 6 -10 9 -2 9 6 0 15 -4
18 -10 3 -5 13 -10 21 -10 8 0 12 4 9 10 -3 5 0 7 8 4 8 -3 18 -1 22 5 3 6 9
11 13 11 4 -1 -4 -10 -17 -20z"/>
<path d="M7135 4471 c-103 -64 -114 -185 -22 -241 98 -60 220 29 202 147 -14
95 -104 142 -180 94z m114 -57 c33 -42 24 -109 -18 -141 -27 -21 -79 -15 -106
12 -42 41 -31 110 23 139 42 23 78 20 101 -10z"/>
<path d="M6718 4330 c-46 -25 -76 -62 -84 -106 -9 -49 2 -82 41 -121 28 -28
40 -33 80 -33 115 0 178 107 125 210 -34 67 -94 85 -162 50z m111 -56 c29 -37
28 -95 -3 -130 -33 -39 -89 -39 -122 0 -36 41 -32 81 12 122 44 43 84 45 113
8z"/>
<path d="M6312 4189 c-100 -50 -120 -166 -42 -233 43 -36 81 -41 134 -17 78
34 108 118 70 198 -32 66 -94 86 -162 52z m84 -39 c7 0 20 -13 29 -30 36 -69
0 -144 -70 -144 -44 0 -85 39 -85 81 0 33 73 108 96 99 8 -3 22 -6 30 -6z"/>
<path d="M11333 5047 c-23 -29 -21 -57 3 -57 18 0 26 20 22 57 l-3 28 -22 -28z"/>
<path d="M1990 4774 c-69 -8 -130 -16 -137 -18 -9 -4 -13 -44 -15 -138 l-3
-133 -17 38 c-20 44 -55 49 -50 7 3 -31 41 -106 63 -126 39 -35 45 -15 52 152
4 86 8 158 9 160 2 1 66 8 143 15 133 13 140 15 143 37 4 26 0 26 -188 6z"/>
<path d="M2767 4733 c-16 -2 -31 -10 -33 -18 -3 -7 31 -59 75 -115 45 -55 81
-104 81 -108 0 -4 -20 -57 -45 -117 -25 -61 -45 -125 -45 -144 0 -80 82 -184
240 -301 151 -112 230 -140 448 -156 62 -4 92 -11 92 -19 0 -37 -24 -73 -65
-97 -34 -21 -45 -34 -45 -52 0 -14 -20 -56 -44 -93 -59 -93 -108 -192 -100
-204 3 -6 15 -9 25 -6 11 3 19 1 19 -4 0 -5 8 -9 18 -9 11 0 35 33 71 101 80
147 85 148 36 6 -50 -142 -54 -167 -27 -167 14 0 27 25 58 115 l39 115 5 -122
c5 -115 6 -123 25 -123 19 0 20 9 26 165 4 91 10 183 14 204 6 29 3 48 -9 70
-15 28 -15 36 -3 71 l14 40 119 6 c214 11 253 30 280 135 9 33 19 75 25 95 l9
36 62 -1 c61 -1 63 0 60 24 -1 13 -47 92 -101 175 -85 130 -168 267 -264 436
-15 26 -34 50 -44 55 -19 8 -967 15 -1016 7z m821 -1139 c-2 -14 -12 -19 -33
-19 -41 0 -46 29 -8 43 32 11 46 2 41 -24z"/>
<path d="M3558 3613 c-26 -7 -32 -33 -6 -30 12 2 22 11 24 20 1 10 2 16 1 16
-1 -1 -9 -3 -19 -6z"/>
<path d="M2006 4664 c-9 -8 -16 -22 -16 -30 0 -20 30 -30 40 -13 5 7 12 10 16
6 4 -4 0 -15 -10 -26 -14 -15 -14 -20 -2 -30 8 -6 19 -10 26 -9 6 2 17 -5 23
-15 10 -15 7 -22 -22 -46 -35 -28 -36 -51 -2 -51 25 0 69 43 77 74 6 27 -17
76 -36 76 -6 0 -10 11 -10 24 0 29 -24 56 -50 56 -10 0 -26 -7 -34 -16z"/>
<path d="M4985 4511 c-92 -44 -155 -121 -195 -237 -30 -86 -28 -95 34 -133 30
-18 59 -30 64 -27 5 3 25 39 46 80 54 111 116 152 163 111 25 -21 28 -30 28
-87 0 -51 -6 -72 -29 -113 -83 -141 -88 -156 -83 -224 7 -91 24 -106 112 -96
71 7 84 19 65 55 -20 37 -2 86 61 169 84 112 103 159 103 251 -1 87 -18 132
-72 192 -80 89 -190 111 -297 59z m183 -37 c84 -35 136 -115 136 -209 0 -83
-16 -122 -89 -220 -60 -80 -92 -156 -83 -196 4 -19 -52 -25 -63 -7 -17 26 -9
93 15 138 91 166 107 222 87 296 -16 59 -52 94 -96 94 -75 0 -134 -46 -187
-147 -25 -48 -27 -48 -52 -30 -16 12 -16 16 6 74 27 72 84 157 98 148 6 -4 9
-1 8 7 -4 19 99 68 144 68 21 0 55 -7 76 -16z"/>
<path d="M11044 4381 c-99 -73 -492 -429 -616 -559 -87 -91 -151 -175 -188
-245 -24 -47 -24 -49 -6 -62 17 -13 15 -18 -38 -82 -31 -37 -56 -73 -56 -80 0
-30 406 -237 900 -458 168 -76 308 -139 313 -142 4 -2 7 9 7 24 0 27 -8 32
-192 112 -105 47 -187 86 -182 88 6 2 50 -15 98 -37 49 -23 131 -59 182 -80
l94 -39 0 49 0 49 -42 11 c-125 30 -168 43 -168 47 0 3 21 2 48 -1 170 -19
162 -20 162 7 0 22 -5 25 -61 31 -34 3 -82 6 -107 6 -76 0 -35 18 71 32 82 10
97 15 97 30 0 15 -9 18 -63 18 -35 0 -99 -9 -142 -20 -43 -11 -80 -18 -82 -17
-5 5 130 194 215 302 55 69 72 97 72 123 0 17 -2 32 -4 32 -7 0 -153 -186
-240 -308 l-89 -122 -22 47 c-55 120 -179 223 -337 282 -46 17 -91 36 -100 41
-10 6 -26 10 -35 10 -25 0 -253 73 -253 81 0 24 104 153 210 263 163 168 595
556 618 556 4 0 57 -16 117 -35 131 -41 137 -42 133 -13 -2 18 -20 27 -108 55
-130 40 -156 41 -206 4z m-724 -987 c11 -12 50 -40 87 -62 38 -22 97 -64 133
-93 152 -123 170 -139 165 -139 -11 0 -367 180 -437 221 -77 45 -76 35 -14
107 19 22 21 22 33 5 7 -10 22 -28 33 -39z m245 3 c55 -38 334 -267 342 -280
8 -14 7 -13 -150 106 -64 48 -162 117 -219 152 -56 36 -104 67 -106 70 -14 14
107 -29 133 -48z m25 -112 c139 -94 295 -214 287 -222 -11 -10 -130 70 -258
173 -71 57 -160 121 -199 144 -38 22 -70 43 -70 46 0 10 112 -56 240 -141z
m274 -37 c34 -31 69 -71 80 -90 17 -30 14 -29 -35 18 -30 28 -89 79 -131 114
-43 34 -78 65 -78 67 0 14 112 -61 164 -109z"/>
<path d="M0 4307 c0 -18 10 -26 53 -41 124 -43 230 -120 304 -219 l43 -59
-144 -147 c-220 -223 -256 -267 -256 -309 0 -42 -9 -49 101 78 41 46 129 141
196 211 132 136 167 156 241 143 44 -8 603 -202 616 -214 7 -7 -413 -943 -433
-963 -13 -13 -111 36 -248 124 -155 100 -242 142 -347 169 -108 27 -126 27
-126 -5 0 -21 5 -25 31 -25 93 0 221 -56 431 -188 70 -44 147 -88 172 -98 25
-11 46 -22 46 -26 0 -16 -137 38 -309 121 -102 50 -226 102 -275 116 -48 14
-90 25 -92 25 -2 0 -4 -11 -4 -24 0 -21 7 -26 53 -36 50 -12 271 -99 265 -105
-2 -2 -56 12 -121 31 -66 19 -137 37 -158 40 -35 6 -39 4 -39 -14 0 -17 9 -24
43 -32 120 -30 296 -87 407 -131 133 -52 177 -75 125 -63 -77 17 -404 128
-557 189 -14 6 -18 2 -18 -19 0 -32 2 -33 313 -137 166 -56 252 -80 287 -81
l50 0 -16 -29 c-8 -17 -21 -32 -29 -36 -18 -6 -182 55 -420 157 -178 76 -199
80 -182 36 9 -24 553 -246 602 -246 12 0 31 10 43 23 22 23 82 156 82 181 0 8
9 20 20 26 11 6 20 18 20 28 0 9 102 239 226 509 124 271 224 498 222 504 -2
7 -143 61 -313 122 -284 100 -316 110 -385 111 -74 1 -75 1 -100 37 -95 135
-190 207 -351 269 -67 25 -69 25 -69 -3z"/>
<path d="M2147 3958 c-59 -62 -106 -120 -105 -128 2 -9 22 -19 50 -25 25 -5
49 -13 52 -16 8 -8 -12 -162 -30 -234 -9 -33 -36 -103 -60 -155 -39 -83 -43
-96 -29 -106 19 -14 232 -57 250 -50 7 2 22 29 33 59 37 98 52 199 52 346 l0
141 28 6 c60 13 123 36 143 53 l22 18 -23 21 c-32 30 -231 167 -255 176 -16 6
-39 -13 -128 -106z m234 -19 c52 -36 86 -66 81 -71 -5 -5 -37 -14 -73 -20 -88
-15 -90 -19 -78 -103 11 -72 5 -202 -12 -290 -12 -60 -39 -147 -48 -157 -6 -6
-156 19 -169 28 -2 1 11 35 28 75 48 114 72 214 77 331 l6 107 -29 6 c-16 4
-33 8 -39 9 -5 2 24 37 64 80 45 46 80 75 89 71 7 -3 54 -33 103 -66z"/>
<path d="M8565 3973 c-171 -3 -195 -7 -195 -30 0 -8 33 -57 73 -107 40 -50 76
-96 79 -101 4 -6 -13 -60 -38 -120 -50 -125 -55 -175 -23 -237 28 -54 113
-139 219 -217 150 -112 210 -134 410 -152 69 -6 127 -12 128 -14 2 -2 -1 -20
-8 -39 -7 -23 -26 -45 -53 -64 -28 -18 -46 -40 -54 -64 -6 -19 -27 -60 -46
-89 -54 -84 -99 -180 -93 -196 4 -9 13 -12 26 -8 11 4 20 2 20 -4 0 -6 6 -11
14 -11 8 0 42 50 77 115 35 63 65 113 67 111 2 -2 -18 -63 -43 -136 -31 -89
-43 -136 -36 -143 21 -21 37 4 76 114 l40 114 5 -125 c4 -109 7 -125 23 -128
20 -4 20 -7 17 174 -1 103 2 138 14 162 21 41 20 85 -2 112 -17 21 -17 27 -4
65 l13 42 122 6 c137 7 224 27 249 57 9 11 26 63 39 116 l23 95 63 -7 63 -6 0
26 c0 16 -27 67 -68 129 -81 121 -186 292 -267 435 -35 62 -67 107 -79 112
-25 9 -622 19 -851 13z m661 -1128 c14 -35 -41 -60 -65 -31 -10 11 -7 17 11
30 28 20 47 20 54 1z"/>
<path d="M9181 2836 c-13 -15 -6 -23 19 -22 17 1 20 28 4 33 -6 2 -16 -3 -23
-11z m23 -4 c3 -5 -1 -9 -9 -9 -8 0 -12 4 -9 9 3 4 7 8 9 8 2 0 6 -4 9 -8z"/>
<path d="M5090 3708 c-28 -31 -27 -92 2 -112 55 -39 128 -6 128 57 0 67 -85
103 -130 55z m78 -56 c3 -18 -1 -22 -22 -22 -19 0 -26 5 -26 18 0 39 43 43 48
4z"/>
<path d="M6633 3459 c-41 -15 -40 -118 2 -199 19 -36 79 -88 111 -96 43 -11
78 23 82 80 7 109 -116 244 -195 215z m68 -62 c43 -29 94 -125 85 -161 -20
-81 -136 41 -136 142 0 23 4 42 9 42 4 0 23 -10 42 -23z"/>
<path d="M7648 3362 c-31 -20 -55 -47 -246 -275 -77 -93 -148 -185 -157 -204
-34 -71 -3 -136 89 -192 64 -38 130 -50 177 -31 47 20 319 332 401 459 58 92
31 148 -102 215 -101 51 -122 54 -162 28z m62 -43 c0 -5 5 -7 10 -4 6 4 33 -7
60 -24 28 -17 55 -31 60 -31 6 0 11 -4 11 -10 1 -5 2 -14 3 -19 2 -15 16 -25
16 -12 0 7 5 9 10 6 6 -3 10 -16 9 -28 0 -21 -1 -21 -9 -2 -7 18 -8 19 -15 3
-4 -10 -11 -18 -17 -18 -5 0 -7 4 -3 9 3 6 -3 14 -12 20 -14 8 -15 11 -3 11
10 1 9 4 -5 10 -19 8 -19 9 -1 9 20 1 20 1 0 16 -27 20 -51 20 -34 0 7 -8 9
-15 6 -15 -4 0 -14 7 -22 15 -12 11 -12 15 -3 15 32 0 -19 29 -59 34 -35 3
-42 2 -38 -10 3 -8 3 -21 0 -29 -6 -14 -8 -13 -21 2 -14 17 -14 17 -8 -2 3
-11 3 -16 -1 -12 -4 4 -13 2 -20 -4 -10 -8 -11 -16 -3 -31 6 -12 7 -18 1 -14
-5 3 -15 -1 -22 -10 -7 -8 -19 -13 -26 -10 -8 3 -12 -4 -11 -22 2 -21 -2 -27
-21 -27 -12 0 -27 -7 -32 -15 -5 -8 -10 -11 -10 -6 0 9 76 100 144 174 38 40
66 54 66 31z m161 -167 c-15 -28 -100 -142 -107 -142 -3 0 -3 4 0 9 4 5 3 11
-1 14 -5 2 -2 2 5 0 9 -2 11 3 8 15 -4 12 1 26 14 37 11 10 17 21 14 26 -2 4
4 6 15 4 14 -3 24 5 33 26 7 16 16 29 21 29 4 0 3 -8 -2 -18z m-91 -52 c-6
-11 -13 -20 -16 -20 -2 0 0 9 6 20 6 11 13 20 16 20 2 0 0 -9 -6 -20z m-235 0
c3 -5 2 -10 -4 -10 -5 0 -13 5 -16 10 -3 6 -2 10 4 10 5 0 13 -4 16 -10z m101
-6 c18 -14 18 -14 -6 -3 -31 14 -36 19 -24 19 6 0 19 -7 30 -16z m-61 -22 c-3
-3 -11 0 -18 7 -9 10 -8 11 6 5 10 -3 15 -9 12 -12z m9 -63 l126 -61 -29 -37
c-16 -20 -65 -75 -110 -123 -99 -105 -116 -111 -198 -70 -94 48 -123 94 -94
149 19 37 159 203 170 203 5 0 65 -27 135 -61z m56 51 c-13 -9 -13 -10 0 -11
8 -1 18 -1 23 0 4 0 7 -4 7 -10 0 -5 5 -7 12 -3 7 4 8 3 4 -4 -6 -11 -39 -4
-69 15 -10 6 10 23 28 23 6 0 3 -5 -5 -10z m91 -32 c1 -7 1 -16 0 -20 0 -5 4
-8 11 -8 6 0 9 -2 6 -5 -3 -3 -17 0 -32 6 -20 9 -23 15 -15 26 14 16 29 17 30
1z"/>
<path d="M7655 3280 c3 -5 8 -10 11 -10 2 0 4 5 4 10 0 6 -5 10 -11 10 -5 0
-7 -4 -4 -10z"/>
<path d="M7587 3210 c-9 -11 -13 -20 -8 -20 11 0 35 29 29 35 -2 2 -12 -4 -21
-15z"/>
<path d="M7541 3157 c-8 -10 -7 -14 4 -14 8 0 15 6 15 14 0 7 -2 13 -4 13 -2
0 -9 -6 -15 -13z"/>
<path d="M7802 3087 c-25 -27 -30 -46 -6 -27 15 13 38 50 31 50 -2 0 -13 -10
-25 -23z"/>
<path d="M5444 3273 c15 -226 19 -255 34 -260 16 -7 32 13 32 40 0 32 31 86
52 93 12 3 26 0 35 -9 20 -20 6 -46 -46 -82 -40 -27 -51 -48 -31 -60 25 -15
124 71 135 117 15 58 -77 102 -132 63 -19 -13 -21 -13 -27 8 -3 12 -6 42 -6
67 0 83 -11 120 -33 120 -19 0 -20 -4 -13 -97z"/>
<path d="M4930 3290 c-93 -49 -139 -151 -91 -199 42 -42 123 -14 156 55 l19
39 7 -40 c10 -55 34 -118 45 -122 5 -1 15 1 23 6 12 8 11 16 -3 53 -10 23 -20
77 -23 118 -4 61 -10 78 -27 92 -27 22 -62 22 -106 -2z m41 -89 c-17 -33 -43
-68 -57 -77 -23 -15 -27 -16 -41 -2 -29 30 14 99 81 129 22 10 42 16 44 14 2
-1 -11 -30 -27 -64z"/>
<path d="M5265 3300 c-3 -6 -3 -31 1 -56 7 -50 -2 -64 -42 -64 -21 0 -38 -22
-27 -34 4 -3 24 -6 45 -6 l38 0 0 -61 c0 -52 2 -60 18 -57 14 3 18 16 20 65 3
59 4 62 30 65 20 2 28 9 30 27 3 22 1 23 -27 18 -29 -6 -31 -4 -36 31 -12 71
-15 82 -30 82 -7 0 -17 -5 -20 -10z"/>
<path d="M2949 3238 c-109 -73 -245 -204 -287 -278 -22 -38 -31 -47 -36 -35
-9 25 -7 133 5 185 23 111 23 110 1 110 -25 0 -37 -34 -52 -143 -13 -93 0
-204 35 -288 5 -15 -2 -16 -64 -11 -62 4 -77 1 -125 -22 -147 -72 -183 -257
-87 -451 41 -83 176 -257 225 -288 58 -39 125 -30 174 24 l20 20 6 -25 c6 -26
29 -35 41 -16 5 8 11 7 21 -1 21 -17 47 -3 39 21 -5 17 -2 20 25 20 73 0 134
51 165 141 19 53 85 421 85 473 0 48 -31 108 -72 140 -38 28 -116 51 -153 44
-14 -3 -25 -4 -25 -3 0 2 40 44 90 93 49 50 99 110 111 134 40 76 23 209 -27
216 -13 2 -58 -22 -115 -60z m61 -29 c0 -7 -79 -89 -175 -184 -140 -139 -172
-166 -159 -137 32 78 140 195 263 285 69 51 71 52 71 36z m44 -88 c-29 -75
-246 -282 -321 -305 -48 -15 -19 22 131 169 84 82 164 166 177 185 19 28 24
31 27 16 2 -10 -4 -39 -14 -65z m-129 -321 c-16 -4 -39 -8 -50 -8 -16 0 -15 2
5 8 14 4 36 8 50 8 22 0 22 -1 -5 -8z m87 -11 c21 -11 21 -12 -3 -25 -13 -7
-28 -13 -34 -13 -5 0 1 6 15 14 19 10 21 15 10 18 -45 15 -45 15 -27 16 10 1
28 -4 39 -10z m-176 -14 c-11 -8 -27 -15 -35 -16 -12 0 -11 -3 4 -10 18 -8 17
-9 -4 -5 -16 3 -41 -6 -76 -30 -29 -18 -56 -34 -60 -34 -19 0 160 108 180 109
6 0 1 -6 -9 -14z m44 1 c0 -2 -7 -7 -16 -10 -8 -3 -12 -2 -9 4 6 10 25 14 25
6z m50 -6 c0 -5 -5 -10 -11 -10 -5 0 -7 5 -4 10 3 6 8 10 11 10 2 0 4 -4 4
-10z m151 -63 c11 -42 4 -127 -11 -127 -5 0 -4 15 1 33 14 46 2 102 -24 116
-14 8 -16 10 -4 6 12 -3 17 -1 14 7 -2 7 -10 12 -16 10 -7 -1 -10 2 -6 8 11
18 34 -8 46 -53z m-483 9 c15 -8 36 -24 47 -37 17 -19 15 -19 -17 5 -20 15
-52 30 -72 33 -43 7 -109 -4 -101 -17 3 -6 -1 -7 -9 -4 -20 8 -21 -10 -1 -26
9 -7 13 -15 11 -18 -3 -2 -12 3 -22 12 -13 14 -19 14 -33 4 -10 -8 -8 -4 4 11
41 48 136 66 193 37z m-121 -41 c0 -8 -4 -12 -9 -9 -5 3 -6 10 -3 15 9 13 12
11 12 -6z m213 -15 c0 -5 -2 -10 -4 -10 -3 0 -8 5 -11 10 -3 6 -1 10 4 10 6 0
11 -4 11 -10z m-300 -19 c0 -5 -5 -11 -10 -13 -12 -4 -15 -32 -6 -68 6 -24 6
-24 -3 -2 -6 12 -13 22 -16 22 -8 0 0 -154 9 -190 4 -14 0 -9 -8 10 -20 48
-20 160 0 210 15 36 34 54 34 31z m677 -113 c-3 -7 -5 -2 -5 12 0 14 2 19 5
13 2 -7 2 -19 0 -25z m-10 -55 c-3 -10 -5 -4 -5 12 0 17 2 24 5 18 2 -7 2 -21
0 -30z m-15 -93 c-8 -44 -8 -45 -13 -12 -3 17 -2 32 3 32 4 0 8 10 9 23 0 12
2 18 5 12 2 -5 0 -30 -4 -55z m-646 -22 c4 -7 3 -8 -4 -4 -7 4 -12 2 -12 -3 0
-6 5 -11 10 -11 6 0 9 -3 9 -7 -1 -5 -1 -15 0 -23 1 -13 2 -13 11 0 9 13 10
13 10 0 0 -13 1 -13 11 0 8 12 10 12 7 1 -7 -26 -38 -20 -54 10 -17 35 -7 68
12 37z m621 -108 c-11 -38 -14 -41 -19 -22 -3 12 -3 20 2 17 4 -2 11 14 15 38
4 23 10 35 12 27 2 -8 -3 -35 -10 -60z m-30 18 c-3 -7 -5 -2 -5 12 0 14 2 19
5 13 2 -7 2 -19 0 -25z m-512 -8 c-3 -5 -12 -10 -18 -10 -7 0 -6 4 3 10 19 12
23 12 15 0z m8 -52 c2 4 2 1 0 -7 -2 -8 2 -11 11 -8 8 3 20 0 26 -8 8 -10 8
-14 -1 -17 -14 -5 -3 -28 12 -28 6 0 8 4 4 9 -3 5 0 13 7 17 7 4 10 4 6 -1 -4
-4 -2 -15 5 -23 9 -13 9 -14 0 -8 -21 12 -15 -2 13 -34 15 -16 31 -27 37 -23
6 3 7 1 3 -5 -4 -7 -2 -12 5 -12 7 0 10 -3 6 -6 -10 -10 -51 26 -109 96 -63
77 -91 116 -55 78 14 -15 27 -24 30 -20z m501 -1 c-5 -15 -3 -17 7 -11 20 12
-19 -47 -45 -68 -13 -11 -36 -17 -61 -16 -30 1 -33 2 -12 5 15 2 25 8 22 13
-3 5 0 12 6 16 7 4 9 3 5 -4 -11 -17 13 -25 29 -8 8 8 11 16 7 19 -4 2 -2 3 4
1 13 -3 34 15 34 29 0 4 -5 5 -11 1 -8 -5 -8 -1 0 14 13 25 14 35 3 28 -5 -3
-9 1 -9 9 0 11 4 12 14 3 8 -6 11 -19 7 -31z m-209 -17 c8 -12 -26 -51 -38
-43 -6 4 -8 -1 -4 -11 5 -13 -3 -28 -27 -52 -19 -19 -40 -34 -46 -34 -7 0 -1
10 14 21 17 13 25 27 21 36 -3 11 -1 13 10 10 8 -4 17 -2 20 3 4 6 1 10 -6 10
-8 0 -8 4 1 15 7 9 15 13 18 10 3 -2 11 3 18 13 9 13 9 19 1 24 -9 6 -9 8 0 8
6 0 14 -4 18 -10z m65 -56 c0 -20 -7 -17 -20 6 -9 16 -8 18 5 14 8 -4 15 -12
15 -20z m50 21 c0 -7 -30 -13 -34 -7 -3 4 4 9 15 9 10 1 19 0 19 -2z m-205
-55 c3 -5 1 -10 -4 -10 -6 0 -11 5 -11 10 0 6 2 10 4 10 3 0 8 -4 11 -10z
m-45 -9 c0 -6 -4 -13 -10 -16 -5 -3 -10 1 -10 9 0 9 5 16 10 16 6 0 10 -4 10
-9z"/>
<path d="M1495 3268 c-21 -63 -27 -113 -32 -239 -5 -137 7 -297 26 -327 5 -9
21 -9 62 -2 29 5 120 19 202 30 166 23 177 26 177 47 0 44 -180 282 -313 411
-93 91 -114 104 -122 80z m45 -116 c0 -20 68 -198 113 -295 22 -48 38 -89 36
-91 -2 -2 -41 -7 -86 -11 l-81 -7 -9 58 c-18 127 -5 408 18 373 5 -8 9 -20 9
-27z m134 -88 c64 -73 196 -253 196 -267 0 -3 -21 -8 -47 -11 -27 -4 -55 -9
-64 -12 -12 -3 -27 20 -61 93 -38 81 -108 263 -108 279 0 11 14 -3 84 -82z"/>
<path d="M4261 3193 c-64 -128 -87 -254 -56 -313 14 -27 12 -41 -29 -212 -97
-401 -159 -748 -160 -884 0 -113 15 -154 58 -154 27 0 46 19 74 75 56 113 83
254 144 754 42 347 43 355 72 390 16 20 35 50 42 68 18 42 18 140 0 192 -22
60 -78 141 -98 141 -11 0 -28 -20 -47 -57z m86 -70 c41 -89 35 -178 -15 -235
-29 -34 -77 -16 -95 35 -4 10 -2 39 3 65 14 63 63 192 73 192 4 0 20 -26 34
-57z m-57 -305 c0 -2 -9 -73 -20 -158 -11 -85 -20 -156 -20 -157 0 -10 -52 0
-56 10 -3 8 7 63 21 123 40 170 45 184 60 184 8 0 15 -1 15 -2z m-77 -373 c12
1 14 0 5 -2 -10 -2 -18 -12 -18 -21 0 -15 -2 -15 -11 -2 -9 12 -10 10 -5 -9 3
-17 2 -21 -6 -13 -6 6 -8 22 -3 39 4 15 9 23 12 17 2 -6 14 -10 26 -9z m17
-52 c0 -21 -4 -44 -9 -51 -5 -8 -8 6 -7 37 1 28 4 51 9 51 4 0 7 -17 7 -37z
m-63 -35 c-3 -8 -6 -5 -6 6 -1 11 2 17 5 13 3 -3 4 -12 1 -19z m20 -20 c-3 -8
-6 -5 -6 6 -1 11 2 17 5 13 3 -3 4 -12 1 -19z m-30 -52 c-1 -30 -5 -52 -9 -49
-13 7 -9 -12 5 -26 10 -10 8 -11 -6 -5 -13 5 -17 13 -13 28 3 11 8 40 12 64 9
58 14 53 11 -12z m44 -4 c1 -24 3 -23 9 8 6 26 8 29 8 10 1 -34 -35 -271 -37
-242 0 13 -5 21 -10 17 -5 -3 -3 8 6 25 16 33 23 149 10 193 -5 19 -4 27 3 22
5 -3 11 -18 11 -33z m-61 -107 c1 11 4 14 7 8 2 -7 -3 -23 -11 -35 -9 -12 -16
-31 -16 -42 0 -11 -3 -17 -6 -14 -3 4 -2 28 2 55 5 37 9 43 15 28 8 -20 8 -20
9 0z m37 -17 c-3 -8 -6 -5 -6 6 -1 11 2 17 5 13 3 -3 4 -12 1 -19z m-78 -162
c-6 -42 -14 -75 -16 -72 -3 2 1 39 8 80 6 42 14 75 16 72 3 -2 -1 -39 -8 -80z
m81 5 c0 -32 -6 -24 -14 19 -4 25 -3 31 4 20 5 -8 10 -26 10 -39z m-53 -3 c-3
-8 -6 -5 -6 6 -1 11 2 17 5 13 3 -3 4 -12 1 -19z m43 -49 c0 -11 -4 -18 -10
-14 -5 3 -7 12 -3 20 7 21 13 19 13 -6z m-13 -51 c-3 -8 -6 -5 -6 6 -1 11 2
17 5 13 3 -3 4 -12 1 -19z m-80 -55 c-2 -16 -4 -5 -4 22 0 28 2 40 4 28 2 -13
2 -35 0 -50z m50 35 c-3 -8 -6 -5 -6 6 -1 11 2 17 5 13 3 -3 4 -12 1 -19z m14
-45 c-9 -16 -10 -16 -11 -1 0 9 3 25 7 35 7 16 8 17 11 1 2 -10 -1 -25 -7 -35z
m-55 -51 c-4 -13 -1 -19 9 -19 8 0 15 5 15 10 0 6 3 8 6 5 4 -5 -34 -98 -41
-98 -1 0 -2 15 -2 33 -1 26 1 28 7 12 5 -11 9 -15 9 -8 1 6 4 19 7 27 5 12 2
15 -10 10 -17 -6 -20 4 -10 30 9 22 17 20 10 -2z"/>
<path d="M6330 3224 c0 -9 17 -37 37 -62 l37 -45 -30 -23 c-16 -13 -33 -22
-39 -21 -5 2 -34 37 -63 78 -54 75 -77 93 -88 65 -4 -9 36 -73 105 -169 151
-211 145 -204 165 -188 14 12 10 21 -39 91 l-54 77 29 21 c16 12 33 22 38 22
5 0 33 -30 62 -67 59 -77 73 -88 89 -69 8 10 -14 45 -99 157 -105 137 -150
177 -150 133z"/>
<path d="M6576 3139 c-14 -11 -26 -27 -26 -35 0 -22 31 -30 42 -11 25 45 58 0
58 -79 0 -31 5 -46 16 -51 18 -7 87 46 92 71 5 24 -26 31 -48 11 -20 -18 -20
-17 -20 19 0 28 -7 45 -29 67 -35 34 -49 36 -85 8z"/>
<path d="M5607 2756 c-55 -24 -439 -368 -638 -572 -107 -111 -219 -260 -219
-292 0 -8 7 -20 15 -26 13 -9 7 -21 -40 -78 -30 -36 -55 -73 -55 -81 0 -35
361 -220 925 -473 435 -195 541 -241 730 -315 190 -75 207 -78 238 -47 23 24
87 163 87 192 0 9 7 16 15 16 8 0 15 6 15 14 0 7 43 107 96 222 52 115 156
343 231 507 82 177 133 301 127 306 -5 5 -101 41 -214 81 -412 145 -428 150
-495 150 l-63 0 -48 66 c-98 133 -211 203 -457 278 -196 61 -219 66 -250 52z
m220 -92 c223 -70 297 -108 388 -199 118 -118 121 -100 -40 -267 -219 -227
-427 -478 -569 -686 l-49 -71 -22 47 c-55 119 -180 222 -337 281 -46 17 -91
36 -102 42 -10 6 -33 13 -51 15 -42 5 -217 62 -229 74 -12 12 47 101 135 200
121 137 655 620 686 620 7 0 93 -25 190 -56z m956 -455 c163 -57 297 -107 297
-110 0 -4 -99 -222 -219 -485 -182 -397 -223 -478 -238 -476 -33 7 -130 59
-245 133 -221 143 -329 181 -513 181 -80 0 -132 -6 -189 -21 -44 -12 -80 -20
-81 -19 -6 7 193 273 306 410 144 176 420 465 464 485 17 7 50 12 76 10 25 -2
179 -51 342 -108z m-1911 -485 c18 -11 58 -36 88 -55 30 -19 93 -66 140 -104
47 -39 98 -80 114 -93 16 -12 26 -22 22 -22 -11 0 -347 170 -429 217 -49 28
-75 49 -70 56 4 7 21 29 37 49 l31 37 17 -32 c9 -18 32 -41 50 -53z m152 56
c44 -15 97 -52 225 -155 93 -74 175 -143 182 -152 13 -17 13 -17 -7 -3 -12 8
-68 51 -125 95 -57 43 -155 112 -219 153 -149 95 -148 94 -56 62z m-36 -59
c119 -73 322 -216 382 -271 l45 -41 -62 31 c-34 18 -123 81 -198 141 -74 59
-167 127 -205 150 -64 38 -79 49 -65 49 3 0 49 -27 103 -59z m413 -131 c82
-81 116 -138 38 -64 -30 28 -89 79 -131 114 -43 34 -78 65 -78 67 0 16 117
-64 171 -117z m675 -215 c89 -30 142 -58 298 -158 60 -38 136 -82 170 -98 33
-15 54 -28 45 -29 -32 0 -138 42 -294 120 -88 43 -194 90 -236 104 -81 27
-226 55 -293 57 -22 1 -52 4 -66 8 -21 7 -18 9 25 15 28 4 55 9 60 12 6 2 56
2 111 0 74 -4 123 -12 180 -31z m-381 -120 c308 -135 746 -285 831 -285 l43 0
-21 -36 c-25 -43 -17 -45 -233 41 -147 58 -758 324 -794 345 -46 27 22 2 174
-65z m219 48 c90 -16 207 -57 281 -97 28 -15 41 -24 30 -21 -91 29 -244 69
-365 95 -80 18 -154 37 -165 41 -28 13 122 1 219 -18z m166 -124 c159 -45 442
-152 416 -157 -17 -4 -459 142 -536 176 -68 31 -39 26 120 -19z"/>
<path d="M10096 2640 c-26 -5 -54 -11 -62 -14 -21 -8 -17 -36 5 -36 22 0 31
-26 31 -93 0 -34 4 -49 16 -54 26 -10 34 17 27 91 -5 51 -3 67 5 62 7 -4 12
-16 12 -28 0 -50 61 -108 115 -108 32 0 81 24 88 44 3 8 -1 20 -9 27 -11 9
-18 9 -32 -4 -35 -31 -77 -25 -102 16 -25 41 -25 58 0 64 13 3 20 12 18 22 -4
19 -42 23 -112 11z"/>
<path d="M8233 2243 c-12 -27 -150 -392 -306 -813 -157 -421 -297 -796 -312
-834 -36 -95 -43 -180 -20 -244 21 -58 -25 -37 495 -234 292 -111 318 -119
375 -116 l60 3 -190 69 c-357 131 -670 256 -683 273 -14 19 -34 85 -27 91 2 2
111 -37 242 -87 285 -108 469 -175 760 -276 190 -67 224 -76 276 -73 l59 3 24
60 c23 58 149 384 447 1155 80 206 150 393 156 415 15 54 14 137 -1 158 -7 9
-119 53 -248 97 -258 90 -642 232 -902 334 -92 36 -171 66 -175 66 -4 0 -18
-21 -30 -47z m160 -65 c0 -7 -58 -161 -128 -343 -70 -181 -217 -566 -327 -855
-110 -289 -201 -526 -203 -528 -2 -2 -97 36 -103 43 -3 2 607 1650 638 1722
l9 21 58 -24 c32 -13 57 -29 56 -36z m96 -27 c10 -6 10 -10 1 -16 -9 -6 -9
-10 1 -17 11 -8 11 -9 -1 -5 -8 2 -14 12 -14 21 3 27 -19 13 -38 -25 -21 -39
-23 -31 -6 18 12 33 30 41 57 24z m71 -27 c32 -13 38 -19 30 -30 -15 -18 -40
-7 -32 14 5 15 4 15 -21 -1 -32 -21 -48 -23 -21 -2 16 13 17 16 4 25 -22 15
-6 12 40 -6z m70 -28 c0 -2 -7 -7 -16 -10 -8 -3 -12 -2 -9 4 6 10 25 14 25 6z
m-163 -28 c-3 -8 -6 -5 -6 6 -1 11 2 17 5 13 3 -3 4 -12 1 -19z m257 -9 c27
-10 51 -21 55 -25 3 -4 -3 -4 -14 1 -11 4 -35 11 -53 15 -18 4 -38 13 -46 19
-7 6 -16 8 -19 4 -4 -3 -7 -1 -7 6 0 9 6 11 18 6 9 -4 39 -16 66 -26z m-319
-28 c-9 -18 -13 -36 -10 -41 3 -6 1 -10 -5 -10 -7 0 -10 -7 -6 -15 3 -8 2 -15
-2 -15 -4 0 -15 -23 -25 -51 -10 -28 -20 -49 -23 -47 -2 3 9 40 25 84 47 127
51 137 57 131 3 -3 -2 -19 -11 -36z m326 -8 c13 -17 13 -17 -6 -3 -11 8 -22
16 -24 17 -2 2 0 3 6 3 6 0 17 -8 24 -17z m69 -3 c-8 -5 -19 -10 -25 -10 -5 0
-3 5 5 10 8 5 20 10 25 10 6 0 3 -5 -5 -10z m50 -10 c8 -5 11 -10 5 -10 -5 0
-17 5 -25 10 -8 5 -10 10 -5 10 6 0 17 -5 25 -10z m70 -26 l25 -15 -25 7 c-14
3 -29 10 -34 15 -16 14 6 10 34 -7z m65 -24 c13 -6 15 -9 5 -9 -8 0 -22 4 -30
9 -18 12 -2 12 25 0z m109 -39 c4 -5 -3 -7 -14 -4 -23 6 -26 13 -6 13 8 0 17
-4 20 -9z m75 -25 l33 -12 -28 -12 c-24 -12 -26 -11 -14 2 11 14 9 16 -8 16
-12 0 -24 5 -27 10 -8 12 1 12 44 -4z m96 -36 c13 -5 14 -9 5 -9 -8 0 -24 4
-35 9 -13 5 -14 9 -5 9 8 0 24 -4 35 -9z m60 -20 c13 -6 15 -9 5 -9 -8 0 -22
4 -30 9 -18 12 -2 12 25 0z m-985 -6 c0 -3 -7 -12 -15 -20 -16 -17 -18 -14 -9
10 6 15 24 23 24 10z m110 -9 c0 -12 -19 -12 -23 0 -4 9 -1 12 9 8 7 -3 14 -7
14 -8z m185 5 c4 -6 -1 -7 -11 -3 -12 4 -15 3 -10 -5 5 -8 2 -10 -9 -5 -13 5
-14 7 -3 14 17 11 26 11 33 -1z m763 -16 c20 -9 47 -18 59 -20 12 -1 29 -7 38
-12 13 -7 10 -9 -14 -9 -18 0 -28 4 -24 10 4 6 0 8 -8 5 -8 -3 -23 0 -34 8
-10 8 -27 14 -36 14 -10 0 -21 5 -24 10 -9 14 0 13 43 -6z m-63 -4 c3 -5 2
-10 -4 -10 -5 0 -13 5 -16 10 -3 6 -2 10 4 10 5 0 13 -4 16 -10z m-777 -15 c3
-3 -11 -5 -31 -5 -19 0 -43 -7 -51 -16 -9 -8 -16 -11 -16 -5 0 5 5 13 10 16 6
4 8 10 5 14 -5 9 75 5 83 -4z m767 -13 c-6 -7 -45 9 -45 18 0 4 11 3 24 -3 14
-7 23 -13 21 -15z m52 12 c-3 -3 -12 -4 -19 -1 -8 3 -5 6 6 6 11 1 17 -2 13
-5z m-1063 -20 c3 -8 2 -12 -4 -9 -6 3 -10 10 -10 16 0 14 7 11 14 -7z m126 1
c11 -13 10 -14 -4 -9 -9 3 -16 10 -16 15 0 13 6 11 20 -6z m165 5 c-3 -5 2
-10 11 -10 10 0 15 -3 11 -6 -8 -8 -47 5 -47 17 0 5 7 9 16 9 8 0 12 -4 9 -10z
m945 -52 c0 -24 -4 -49 -9 -57 -5 -8 -7 5 -4 34 4 34 2 50 -8 56 -11 7 -10 9
4 9 13 0 17 -9 17 -42z m-1247 -9 c-10 -16 -20 -29 -24 -29 -12 0 -18 -42 -9
-65 8 -20 6 -23 -9 -20 -22 4 -42 -53 -36 -101 2 -16 -1 -37 -7 -45 -8 -11 -9
-10 -4 4 3 10 1 27 -4 37 -7 14 -1 42 26 114 20 53 40 96 45 96 5 0 6 8 3 18
-5 15 -4 15 6 2 10 -13 11 -11 7 7 -3 15 -1 20 9 16 11 -4 11 -10 -3 -34z
m377 29 c3 -4 17 -9 32 -12 14 -2 36 -10 48 -16 12 -7 33 -10 47 -7 17 3 23 1
19 -8 -3 -8 6 -16 21 -20 14 -3 23 -8 21 -11 -6 -5 -208 65 -222 77 -4 4 0 6
10 6 11 -1 21 -5 24 -9z m-268 -40 c-8 -8 -9 -4 -5 13 4 13 8 18 11 10 2 -7
-1 -18 -6 -23z m468 -100 c195 -73 356 -133 358 -134 3 -2 -79 -285 -85 -293
-6 -8 -730 223 -745 238 -4 3 16 69 43 146 28 77 53 148 56 158 3 9 8 17 12
17 3 0 166 -59 361 -132z m-439 85 c-12 -20 -14 -14 -5 12 4 9 9 14 11 11 3
-2 0 -13 -6 -23z m-17 -51 c-4 -12 -10 -19 -16 -16 -5 3 -4 11 2 19 7 8 8 20
4 27 -5 9 -4 10 4 3 6 -6 9 -20 6 -33z m491 18 c4 -6 11 -8 16 -5 5 4 9 1 9
-4 0 -14 -10 -13 -40 4 -18 10 -20 14 -8 15 9 0 20 -5 23 -10z m110 -40 c4 0
3 5 -1 12 -4 7 7 2 25 -11 18 -13 30 -25 28 -27 -6 -6 -109 34 -122 47 -5 6 7
3 27 -5 21 -9 40 -16 43 -16z m464 -114 c-29 -75 -56 -133 -61 -130 -6 4 -6 9
1 13 6 4 13 21 15 37 2 16 11 42 19 58 9 16 13 36 10 45 -3 11 -2 12 4 3 6 -8
16 8 32 53 13 36 25 64 28 62 2 -3 -19 -66 -48 -141z m-1099 48 c-20 -46 -20
-44 -5 16 6 20 5 22 -5 10 -10 -13 -11 -13 -7 0 2 8 10 14 16 13 6 -2 11 2 11
9 0 6 2 9 5 6 3 -3 -4 -27 -15 -54z m800 36 c0 -5 -2 -10 -4 -10 -3 0 -8 5
-11 10 -3 6 -1 10 4 10 6 0 11 -4 11 -10z m291 -17 c-12 -20 -14 -14 -5 12 4
9 9 14 11 11 3 -2 0 -13 -6 -23z m-357 8 c4 -5 -3 -7 -14 -4 -23 6 -26 13 -6
13 8 0 17 -4 20 -9z m107 -38 c40 -21 75 -45 75 -53 1 -8 5 -24 9 -35 5 -15 4
-16 -3 -6 -8 11 -14 2 -26 -35 -9 -27 -13 -38 -11 -24 3 14 8 46 12 71 l6 47
-62 22 c-33 13 -61 26 -61 31 0 5 -7 5 -17 2 -11 -4 -14 -3 -9 5 9 15 1 18 87
-25z m-867 -67 c-4 -12 -11 -36 -15 -54 -7 -32 -6 -35 34 -53 23 -10 34 -19
25 -19 -10 0 -18 -4 -18 -10 0 -5 8 -14 18 -19 9 -6 11 -11 5 -11 -7 0 -12 -6
-10 -12 1 -8 -6 -12 -18 -10 -11 1 -30 4 -41 5 -12 1 -19 7 -17 14 4 9 9 9 23
1 9 -6 25 -8 35 -4 17 6 17 7 0 26 -14 15 -15 20 -4 20 8 1 3 7 -10 14 -14 8
-32 12 -40 9 -14 -4 -14 -4 -1 6 13 9 13 11 0 11 -13 0 -13 2 -1 9 8 5 12 18
8 29 -2 12 0 23 7 25 8 3 8 8 -1 18 -19 19 -16 34 4 18 15 -13 15 -12 3 11
-12 23 -12 24 4 11 11 -9 14 -21 10 -35z m-167 -4 c0 -16 -6 -29 -13 -29 -9 0
-9 8 -2 29 6 15 11 28 12 28 2 0 3 -13 3 -28z m-21 -58 c-9 -8 -19 -27 -22
-42 -4 -15 -11 -33 -17 -39 -5 -7 -7 -22 -4 -33 3 -11 1 -18 -3 -15 -5 3 -11
-1 -14 -7 -3 -7 -4 0 -1 15 9 44 53 137 65 137 7 0 5 -7 -4 -16z m44 -38 c0
-3 -4 -8 -10 -11 -5 -3 -10 -1 -10 4 0 6 5 11 10 11 6 0 10 -2 10 -4z m1050
-48 c0 -21 -3 -29 -10 -22 -5 5 -7 19 -4 32 9 31 14 27 14 -10z m151 5 c-8
-15 -10 -15 -11 -2 0 17 10 32 18 25 2 -3 -1 -13 -7 -23z m-807 -41 c99 -32
175 -62 168 -65 -6 -4 -14 -3 -17 3 -4 6 -16 8 -27 4 -14 -4 -18 -2 -14 5 4 6
1 11 -6 11 -28 0 -314 99 -288 100 3 0 86 -26 184 -58z m-267 42 c-3 -3 -12
-4 -19 -1 -8 3 -5 6 6 6 11 1 17 -2 13 -5z m92 -50 c-6 -8 -17 -14 -23 -14 -6
0 -3 5 7 11 9 6 14 15 11 21 -4 7 -2 8 5 4 9 -6 9 -11 0 -22z m964 -2 c-3 -12
-10 -19 -16 -15 -6 4 -8 0 -5 -9 4 -8 1 -15 -6 -15 -6 0 -12 8 -12 18 0 10 4
15 8 13 4 -3 13 4 20 15 15 25 19 22 11 -7z m-893 -2 c13 -11 18 -20 12 -20
-10 0 -42 27 -42 36 0 8 7 4 30 -16z m40 0 c0 -5 -2 -10 -4 -10 -3 0 -8 5 -11
10 -3 6 -1 10 4 10 6 0 11 -4 11 -10z m703 -10 c3 -11 1 -18 -3 -15 -8 5 -21
-29 -35 -90 -8 -37 -23 -55 -44 -55 -23 0 -124 30 -119 35 2 2 26 -2 53 -10
80 -25 80 -24 110 70 15 47 29 85 30 85 1 0 5 -9 8 -20z m-890 -39 c22 -10 37
-20 31 -23 -15 -9 -84 41 -83 60 1 15 2 15 6 -1 3 -10 23 -26 46 -36z m102 39
c-3 -5 -12 -10 -18 -10 -7 0 -6 4 3 10 19 12 23 12 15 0z m-365 -45 c-6 -15
-13 -25 -16 -23 -2 3 1 17 7 32 16 34 23 27 9 -9z m515 25 c-3 -5 -14 -10 -23
-9 -14 0 -13 2 3 9 27 11 27 11 20 0z m14 -40 c29 -11 59 -19 65 -17 6 2 16
-2 21 -10 6 -8 22 -15 35 -17 26 -4 41 -9 102 -34 21 -9 36 -17 35 -18 -4 -4
-349 114 -356 122 -10 9 42 -4 98 -26z m214 9 c7 0 1 -4 -11 -10 -26 -10 -46
-3 -36 12 3 6 13 8 21 5 8 -3 20 -6 26 -7z m508 -68 c-17 -45 -30 -67 -34 -57
-3 8 -1 16 5 18 6 2 11 22 12 43 1 25 6 39 13 38 7 -2 15 7 18 18 4 11 9 19
11 17 2 -2 -9 -37 -25 -77z m-601 65 c0 -2 -7 -7 -16 -10 -8 -3 -12 -2 -9 4 6
10 25 14 25 6z m25 -15 c3 -5 2 -12 -3 -15 -5 -3 -9 1 -9 9 0 17 3 19 12 6z
m135 -6 c23 -9 28 -14 15 -14 -11 0 -31 6 -45 14 -31 18 -16 18 30 0z m-446
-2 c3 -4 12 -8 19 -9 27 -4 203 -65 217 -75 20 -14 -22 -3 -68 17 -17 8 -44
17 -60 19 -15 2 -40 10 -56 18 -16 9 -34 13 -41 11 -6 -3 -18 2 -25 11 -12 15
0 22 14 8z m793 -25 c-3 -7 -5 -2 -5 12 0 14 2 19 5 13 2 -7 2 -19 0 -25z m60
10 c-3 -8 -6 -5 -6 6 -1 11 2 17 5 13 3 -3 4 -12 1 -19z m-1242 -10 c-3 -13
-7 -33 -8 -45 0 -12 -5 -19 -11 -16 -5 4 -7 -3 -4 -15 4 -14 2 -20 -5 -15 -7
4 -8 0 -4 -11 5 -11 3 -15 -5 -10 -8 5 -9 1 -4 -12 5 -13 4 -16 -4 -8 -7 7 -2
31 16 82 26 71 40 94 29 50z m740 -6 c-3 -3 -11 0 -18 7 -9 10 -8 11 6 5 10
-3 15 -9 12 -12z m180 7 c17 -8 16 -8 -7 -4 -23 4 -26 2 -23 -14 3 -14 -1 -18
-12 -14 -12 5 -12 7 -1 14 10 7 10 9 -2 9 -13 0 -13 1 0 10 18 11 19 11 45 -1z
m-545 -9 c0 -5 -2 -10 -4 -10 -3 0 -8 5 -11 10 -3 6 -1 10 4 10 6 0 11 -4 11
-10z m503 -61 c-5 -5 -20 -5 -33 -2 l-25 7 25 6 c28 8 46 2 33 -11z m116 10
c-8 -5 -22 -9 -32 -9 -12 0 -16 -5 -11 -12 5 -10 3 -10 -7 0 -17 16 -3 26 37
29 19 1 23 -1 13 -8z m-294 -24 c40 -18 16 -19 -26 0 -19 8 -27 14 -19 14 8 0
29 -6 45 -14z m310 5 c-3 -5 -12 -10 -18 -10 -7 0 -6 4 3 10 19 12 23 12 15 0z
m-76 -12 c68 -21 99 -38 105 -55 5 -16 5 -16 -6 -2 -7 9 -43 26 -80 38 -38 13
-68 25 -68 27 0 6 11 5 49 -8z m291 -9 c-7 -11 -14 -18 -17 -15 -3 3 0 12 7
21 18 21 23 19 10 -6z m-455 -9 c13 -6 15 -9 5 -9 -8 0 -22 4 -30 9 -18 12 -2
12 25 0z m440 -92 c-75 -190 -97 -238 -107 -238 -7 0 -7 4 0 13 20 24 49 115
41 129 -4 8 -3 20 3 28 8 12 9 12 4 -2 -3 -10 -1 -20 3 -23 9 -5 26 41 22 63
-1 6 3 12 9 12 5 0 9 3 8 8 -1 4 4 17 11 30 7 13 10 30 7 38 -3 8 -2 13 3 10
5 -3 11 4 14 16 4 12 9 19 13 16 3 -4 -10 -49 -31 -100z m-565 88 c0 -2 -7 -7
-16 -10 -8 -3 -12 -2 -9 4 6 10 25 14 25 6z m295 -54 c44 -13 74 -27 67 -29
-7 -3 -27 2 -45 10 -18 8 -48 18 -67 22 -19 4 -44 14 -55 23 l-20 14 20 -7
c11 -4 56 -19 100 -33z m-1005 -17 c-6 -15 -13 -26 -15 -23 -3 2 1 19 8 37 6
17 13 28 15 23 1 -5 -2 -22 -8 -37z m1106 0 c-1 -8 -5 -17 -8 -21 -5 -4 -4 16
1 34 3 9 9 -1 7 -13z m-111 -5 c3 -5 1 -10 -4 -10 -6 0 -11 5 -11 10 0 6 2 10
4 10 3 0 8 -4 11 -10z m-1019 -56 c-4 -9 -9 -15 -11 -12 -3 3 -3 13 1 22 4 9
9 15 11 12 3 -3 3 -13 -1 -22z m-4 -38 c7 4 8 2 4 -5 -4 -6 -11 -9 -15 -7 -4
3 -16 -21 -26 -52 -10 -31 -23 -61 -28 -67 -11 -11 -11 -12 24 84 12 35 25 59
27 53 2 -7 9 -9 14 -6z m-72 -186 c0 -11 -2 -20 -4 -20 -2 0 -6 9 -9 20 -3 11
-1 20 4 20 5 0 9 -9 9 -20z m-41 -74 c-11 -32 -23 -55 -25 -53 -3 2 5 30 17
61 12 31 24 55 26 53 2 -3 -6 -30 -18 -61z m1294 36 c-3 -12 -9 -22 -14 -22
-5 0 -3 11 3 25 13 30 20 28 11 -3z m-32 -79 c-12 -20 -14 -14 -5 12 4 9 9 14
11 11 3 -2 0 -13 -6 -23z m-1310 -89 c-12 -25 -18 -50 -15 -55 3 -5 0 -9 -5
-9 -6 0 -11 3 -11 6 0 15 45 122 48 114 2 -5 -6 -30 -17 -56z m1278 2 c-12
-31 -28 -56 -35 -56 -8 0 -14 -5 -14 -11 0 -5 5 -7 12 -3 8 5 9 2 5 -10 -4
-10 -7 -22 -7 -27 0 -5 -3 -9 -7 -9 -16 0 -8 62 10 71 9 6 17 16 17 23 0 19
30 89 36 84 2 -3 -5 -30 -17 -62z m-1253 -28 c4 -7 3 -8 -4 -4 -7 4 -12 2 -12
-5 0 -8 10 -9 30 -5 19 3 29 2 25 -4 -8 -13 -52 -13 -60 0 -6 9 1 30 10 30 2
0 7 -5 11 -12z m78 -72 c38 -14 72 -23 77 -21 10 7 40 -6 34 -14 -2 -4 19 -16
46 -25 27 -10 48 -20 46 -22 -4 -5 -298 105 -307 114 -7 7 26 -3 104 -32z
m1089 -48 c4 -10 8 -9 16 2 6 8 11 10 11 4 0 -6 -3 -14 -7 -18 -4 -3 -8 -16
-10 -27 -2 -12 -7 -28 -12 -36 -7 -13 -9 -13 -14 1 -4 10 -3 15 2 12 15 -10
20 34 5 48 -16 17 -18 26 -5 26 5 0 12 -6 14 -12z m-26 -40 c-3 -8 -6 -5 -6 6
-1 11 2 17 5 13 3 -3 4 -12 1 -19z m-742 -8 c3 -6 -1 -7 -9 -4 -18 7 -21 14
-7 14 6 0 13 -4 16 -10z m3 -26 c14 -7 38 -11 52 -8 19 4 22 3 10 -5 -12 -9
-13 -11 -1 -11 8 0 12 -2 9 -5 -3 -3 -41 8 -84 25 -43 17 -64 28 -46 24 18 -3
45 -12 60 -20z m746 -47 c-3 -8 -12 -18 -20 -21 -11 -4 -11 0 2 20 18 26 28
27 18 1z m-559 -17 c28 -13 63 -23 78 -23 20 0 24 -3 15 -10 -9 -6 -6 -7 10
-4 12 3 20 2 17 -3 -3 -4 7 -11 21 -14 15 -4 24 -9 21 -12 -2 -3 -47 11 -98
31 -52 20 -105 38 -118 41 -14 3 -32 9 -40 14 -32 19 44 3 94 -20z m65 15 c0
-12 -19 -12 -23 0 -4 9 -1 12 9 8 7 -3 14 -7 14 -8z m-40 -5 c8 -5 11 -10 5
-10 -5 0 -17 5 -25 10 -8 5 -10 10 -5 10 6 0 17 -5 25 -10z m70 -10 c-8 -5
-19 -10 -25 -10 -5 0 -3 5 5 10 8 5 20 10 25 10 6 0 3 -5 -5 -10z m230 -73
c13 -5 13 -6 -1 -6 -8 -1 -24 6 -35 15 -19 15 -19 15 1 6 11 -5 27 -12 35 -15z
m157 1 c-3 -8 -6 -5 -6 6 -1 11 2 17 5 13 3 -3 4 -12 1 -19z m22 -53 c-12 -31
-24 -53 -28 -48 -3 5 -13 8 -21 8 -17 -1 -73 16 -68 21 2 1 20 -1 41 -5 32 -8
51 0 30 12 -5 2 -3 3 3 1 6 -1 15 1 20 4 16 11 35 63 28 75 -5 9 -4 9 5 1 9
-8 7 -24 -10 -69z m-304 55 c-3 -5 -11 -10 -16 -10 -6 0 -7 5 -4 10 3 6 11 10
16 10 6 0 7 -4 4 -10z m45 -20 c8 -5 11 -10 5 -10 -5 0 -17 5 -25 10 -8 5 -10
10 -5 10 6 0 17 -5 25 -10z m113 -7 c-7 -2 -19 -2 -25 0 -7 3 -2 5 12 5 14 0
19 -2 13 -5z m12 -41 c-2 -2 -13 -1 -26 3 -16 5 -18 9 -9 15 11 7 43 -10 35
-18z"/>
<path d="M8251 1624 c0 -11 3 -14 6 -6 3 7 2 16 -1 19 -3 4 -6 -2 -5 -13z"/>
<path d="M9341 1174 c0 -11 3 -14 6 -6 3 7 2 16 -1 19 -3 4 -6 -2 -5 -13z"/>
<path d="M1190 2229 c-160 -19 -350 -98 -502 -211 -59 -44 -78 -64 -78 -82 0
-17 34 -57 127 -146 117 -114 207 -192 638 -559 88 -74 227 -202 308 -283 82
-82 155 -148 162 -148 8 0 31 20 52 45 202 240 238 583 94 890 -115 246 -314
431 -516 479 -82 20 -195 26 -285 15z m290 -65 c166 -50 308 -169 416 -350 99
-168 140 -322 131 -498 -8 -166 -59 -308 -151 -424 -33 -41 -58 -43 -37 -3 14
26 -11 50 -34 31 -13 -10 -19 -8 -37 16 -12 15 -22 37 -23 48 0 14 -7 22 -20
22 -11 1 -25 2 -31 3 -26 2 -24 35 2 62 16 17 24 34 21 43 -9 24 -30 19 -62
-14 l-29 -30 -23 22 c-21 20 -22 23 -7 40 14 14 14 20 4 33 -11 14 -15 14 -36
0 -20 -13 -25 -13 -44 3 -20 16 -21 21 -9 40 19 31 1 47 -34 31 -32 -15 -58 1
-54 34 2 18 -3 22 -24 20 -17 -1 -35 7 -49 22 l-23 24 27 36 c26 34 29 65 6
65 -6 0 -25 -16 -43 -34 -32 -35 -32 -35 -55 -16 -20 16 -21 22 -10 39 18 30
-3 51 -33 33 -17 -11 -25 -10 -46 4 -23 14 -24 18 -10 26 40 22 7 59 -33 38
-18 -10 -26 -8 -46 11 -22 20 -23 24 -9 39 14 15 14 19 1 29 -11 9 -20 10 -36
1 -16 -9 -25 -8 -38 1 -9 8 -19 14 -21 16 -2 1 13 22 33 47 40 49 43 61 20 70
-11 4 -29 -7 -55 -35 l-38 -41 -25 20 c-25 19 -25 20 -6 37 26 23 26 55 1 55
-10 0 -24 -7 -31 -15 -15 -19 -34 -19 -49 -2 -8 11 -6 18 9 32 41 37 16 68
-29 36 l-28 -20 -24 25 c-22 24 -23 26 -6 35 21 12 23 49 1 49 -8 0 -25 -5
-36 -11 -17 -9 -24 -7 -40 9 l-20 20 63 47 c137 99 304 172 449 194 86 13 242
6 310 -15z"/>
<path d="M1130 2018 c-70 -25 -140 -72 -140 -94 0 -45 772 -824 816 -824 19 0
32 35 51 135 74 384 -216 780 -587 801 -60 4 -88 0 -140 -18z m220 -39 c157
-36 322 -172 398 -329 53 -108 72 -183 72 -285 0 -87 -17 -195 -31 -195 -24 0
-723 711 -737 749 -3 8 68 50 106 61 39 12 139 11 192 -1z"/>
<path d="M10905 2200 c-96 -17 -229 -61 -305 -101 -142 -73 -234 -176 -328
-364 -79 -157 -87 -190 -87 -340 0 -116 3 -139 29 -218 84 -256 286 -443 562
-519 112 -30 355 -31 462 -1 125 36 122 31 122 188 0 125 -1 135 -19 135 -18
0 -67 65 -104 137 -17 31 -16 35 28 159 43 123 55 144 83 144 6 0 12 11 12 25
0 18 -4 23 -15 19 -9 -4 -15 0 -15 9 0 8 -18 36 -39 62 -21 26 -55 85 -74 131
l-36 84 29 63 c17 34 30 67 31 72 0 6 27 27 60 48 l60 39 -3 91 -3 92 -70 24
c-58 21 -92 25 -200 27 -71 2 -152 -1 -180 -6z m237 -48 c-4 -23 20 -157 38
-204 17 -46 17 -47 -5 -103 -13 -30 -28 -62 -34 -69 -8 -10 -54 -16 -158 -21
-80 -4 -159 -11 -174 -15 -26 -8 -33 -3 -79 47 -39 42 -50 61 -46 77 4 12 16
71 28 133 l22 111 56 17 c129 39 358 57 352 27z m-478 -359 c25 -35 55 -68 66
-75 11 -7 20 -17 20 -23 0 -5 -27 -69 -61 -141 l-61 -131 -95 -16 -96 -16 -60
41 c-33 22 -77 57 -99 78 l-39 36 21 55 c31 78 105 217 144 270 l34 46 90 -31
c87 -30 92 -33 136 -93z m52 -558 l113 -129 -45 -86 -45 -86 -109 -54 -109
-54 -46 39 c-64 52 -129 136 -173 222 l-36 72 87 94 c86 94 86 94 149 104 35
6 72 10 83 9 12 0 64 -52 131 -131z m496 -167 c8 -18 32 -55 53 -82 l38 -50
-11 -65 c-7 -36 -14 -87 -18 -113 -6 -46 -7 -47 -53 -58 -61 -15 -306 -24
-356 -13 -36 8 -41 13 -52 53 -7 24 -15 78 -18 119 -6 74 -5 78 33 146 l38 70
145 11 c79 6 153 12 165 12 14 2 25 -8 36 -30z m-465 -210 c-3 -8 -6 -5 -6 6
-1 11 2 17 5 13 3 -3 4 -12 1 -19z"/>
<path d="M0 2065 c0 -69 2 -71 43 -37 16 15 22 11 79 -44 33 -32 82 -92 109
-132 45 -68 93 -175 87 -192 -2 -4 -40 -41 -85 -82 -78 -72 -85 -76 -155 -89
-63 -12 -73 -18 -76 -37 -4 -26 3 -27 97 -7 l70 15 63 -48 c35 -26 74 -54 88
-63 24 -15 24 -17 11 -75 -25 -111 -97 -257 -169 -342 l-28 -34 -67 30 -67 31
0 -115 c0 -89 3 -114 13 -108 6 4 37 27 69 51 126 99 230 259 284 440 37 122
39 309 6 427 -54 188 -186 368 -336 456 l-36 22 0 -67z"/>
<path d="M7426 1779 c-11 -16 -12 -27 -5 -41 12 -23 25 -23 39 0 9 15 10 14 8
-8 -2 -17 4 -28 20 -36 l22 -11 -21 -26 c-35 -45 0 -66 39 -24 24 26 29 68 9
89 -6 7 -17 27 -22 43 -14 40 -65 48 -89 14z"/>
<path d="M3392 1754 c-7 -3 -36 -38 -66 -77 -29 -40 -76 -98 -105 -129 -48
-53 -57 -58 -95 -58 -22 0 -59 -9 -81 -19 -42 -19 -95 -72 -95 -95 0 -18 -196
-118 -326 -167 -136 -51 -141 -54 -164 -92 -25 -41 -25 -92 0 -160 36 -95 96
-157 153 -157 28 0 91 28 139 61 37 26 45 24 52 -16 6 -31 10 -35 39 -35 28 1
93 20 148 44 13 6 18 -4 28 -55 7 -35 22 -85 33 -113 38 -98 158 -239 188
-221 5 3 10 17 10 31 0 24 0 24 36 9 46 -19 74 -19 74 -1 0 8 -24 69 -54 135
-56 124 -99 245 -111 317 -5 34 -3 43 11 48 23 9 28 2 48 -74 30 -112 90 -223
164 -301 65 -69 150 -129 184 -129 27 0 31 18 10 53 -11 17 -22 41 -26 52 -5
18 -2 20 40 16 77 -6 74 9 -28 110 -51 52 -108 119 -126 151 -40 68 -81 182
-88 246 l-6 47 134 102 c73 56 142 111 152 122 60 66 -31 273 -144 331 -41 21
-107 33 -128 24z m124 -74 c67 -42 138 -184 118 -236 -10 -26 -332 -276 -345
-268 -5 3 -9 17 -9 32 0 39 -24 122 -53 186 l-26 57 77 93 c42 51 90 110 106
131 26 33 32 37 63 32 18 -3 49 -16 69 -27z m-328 -326 c19 -49 34 -112 37
-147 2 -34 2 -53 -1 -42 -4 11 -11 26 -16 32 -6 7 -7 24 -4 38 9 34 -3 82 -16
63 -5 -8 -6 -2 -2 17 4 23 3 27 -5 15 -9 -13 -11 -12 -9 5 2 36 -2 56 -11 50
-6 -3 -15 4 -21 16 -10 17 -9 20 1 14 9 -6 11 -3 6 8 -3 10 -3 17 1 17 4 0 22
-39 40 -86z m-80 64 c-2 -6 -11 -13 -19 -16 -11 -3 -11 -2 1 7 11 8 11 11 2
11 -21 0 -72 -29 -72 -41 0 -7 6 -6 18 2 15 13 16 12 3 -3 -12 -16 -9 -22 9
-20 3 0 6 -8 7 -18 2 -18 1 -18 -16 -1 -10 10 -24 20 -32 23 -17 6 -4 25 35
49 35 21 70 25 64 7z m7 -48 c3 -6 -1 -7 -9 -4 -18 7 -21 14 -7 14 6 0 13 -4
16 -10z m-97 -84 c35 -40 64 -113 83 -210 l13 -69 -47 -43 c-55 -50 -143 -95
-187 -97 -29 -2 -32 1 -53 64 -28 81 -65 137 -130 194 l-48 42 78 32 c43 17
114 51 158 76 44 24 85 45 91 45 7 0 25 -15 42 -34z m96 17 c3 -7 1 -15 -5
-18 -6 -4 -2 -20 11 -39 11 -19 20 -44 20 -57 -1 -17 -7 -10 -21 26 -12 28
-21 55 -22 62 0 7 -6 14 -14 17 -20 8 -16 22 7 22 11 0 22 -6 24 -13z m93
-155 c-3 -8 -6 -5 -6 6 -1 11 2 17 5 13 3 -3 4 -12 1 -19z m-47 -45 c8 -32 14
-41 26 -36 13 5 13 8 2 15 -10 7 -9 8 5 4 16 -5 25 8 10 17 -5 2 -3 2 4 1 6
-2 14 5 16 14 4 15 5 15 6 -1 0 -10 -13 -33 -31 -50 l-32 -32 -13 50 c-7 28
-12 57 -12 65 1 18 4 9 19 -47z m-532 13 c38 -20 106 -93 131 -140 l20 -39
-37 -28 c-20 -16 -40 -29 -44 -29 -5 0 -8 17 -8 38 -1 45 -22 106 -46 133 -26
29 -81 22 -107 -13 -23 -31 -18 -82 12 -120 19 -22 20 -22 55 -5 20 9 39 17
42 17 3 0 4 -16 2 -36 -7 -85 -71 -62 -125 46 -57 110 -39 190 42 190 20 0 48
-6 63 -14z m695 -3 c-7 -3 -13 -9 -13 -14 0 -4 6 -6 14 -3 9 4 16 -6 21 -32
19 -103 97 -247 178 -331 37 -38 45 -50 29 -46 -28 7 -38 -18 -24 -63 l10 -34
-28 20 c-58 41 -150 163 -132 174 16 9 36 -13 37 -41 0 -16 6 -27 13 -26 6 2
9 -4 6 -11 -3 -8 3 -19 13 -24 26 -14 81 32 63 53 -7 8 -16 12 -21 9 -5 -3 -8
0 -7 7 2 6 -3 14 -11 17 -10 3 -12 0 -7 -13 5 -15 4 -16 -9 -5 -13 11 -13 15
-3 21 7 5 10 9 6 10 -5 1 -11 2 -15 3 -20 3 -32 18 -27 31 4 8 -1 18 -10 21
-9 3 -16 11 -16 16 0 6 8 4 17 -3 15 -12 16 -12 10 4 -4 10 -7 21 -7 23 0 3
-5 2 -10 -1 -6 -4 -10 -3 -9 2 4 22 -2 44 -10 38 -14 -8 -24 13 -23 49 0 16
-2 25 -6 19 -4 -7 -8 7 -8 30 -1 23 -6 43 -12 45 -6 2 -8 11 -5 20 6 15 5 16
-12 2 -11 -9 -16 -10 -11 -2 4 6 2 12 -4 12 -7 0 -9 -19 -5 -57 3 -31 3 -54 0
-51 -3 3 -8 27 -10 53 -4 40 -1 53 17 72 12 12 24 20 27 17 3 -4 0 -9 -6 -11z
m-6 -95 c-3 -8 -6 -5 -6 6 -1 11 2 17 5 13 3 -3 4 -12 1 -19z m-703 -11 c8
-13 6 -22 -11 -38 l-22 -22 -6 26 c-13 51 14 74 39 34z m693 -59 c-3 -8 -6 -5
-6 6 -1 11 2 17 5 13 3 -3 4 -12 1 -19z m-157 -12 c0 -16 -7 -26 -22 -29 -21
-6 -21 -7 -4 -26 10 -11 16 -28 13 -38 -4 -16 -5 -16 -6 2 -1 24 -37 58 -52
50 -5 -4 -8 -9 -5 -13 2 -4 0 -16 -5 -27 -7 -18 -8 -18 -8 5 -1 18 11 36 41
62 24 21 44 38 46 38 1 0 2 -11 2 -24z m38 -141 c19 -57 48 -132 65 -168 l32
-63 -34 20 -34 20 -17 -21 c-16 -20 -16 -20 -41 15 -13 20 -22 38 -21 40 2 3
-1 8 -6 11 -5 3 -16 20 -24 36 -14 28 -13 31 5 49 23 21 23 24 -1 -33 -4 -10
-1 -12 8 -6 9 5 11 4 6 -4 -4 -6 0 -18 8 -27 9 -9 14 -19 11 -24 -3 -5 -1 -11
5 -15 5 -3 10 -2 10 3 0 5 7 9 15 9 13 0 13 -2 0 -17 -15 -16 -11 -30 7 -30 5
0 6 5 3 10 -3 6 1 13 9 16 9 3 13 10 10 15 -3 5 2 6 11 2 12 -4 13 -8 5 -13
-8 -5 -4 -9 10 -13 16 -4 20 -2 16 10 -3 8 -6 19 -6 24 0 6 -5 7 -10 4 -6 -4
-9 -3 -8 2 5 16 -56 181 -66 176 -5 -3 -6 -2 -3 4 4 6 2 24 -3 42 -5 17 -6 31
-2 31 4 0 22 -47 40 -105z m165 82 c7 4 5 -1 -3 -11 -13 -17 -14 -17 -21 1
-11 27 -10 40 2 20 6 -10 15 -14 22 -10z m5 -62 c-3 -3 -9 2 -12 12 -6 14 -5
15 5 6 7 -7 10 -15 7 -18z m-275 -5 c3 -11 1 -23 -4 -26 -5 -3 -9 6 -9 20 0
31 6 34 13 6z m12 -54 c0 -15 -4 -21 -9 -16 -5 5 -6 16 -3 24 9 22 12 20 12
-8z m46 -39 c-10 -9 -11 -8 -5 6 3 10 9 15 12 12 3 -3 0 -11 -7 -18z m344 -7
c-3 -5 -12 -10 -18 -10 -7 0 -6 4 3 10 19 12 23 12 15 0z m-305 -51 c0 -6 -4
-7 -10 -4 -5 3 -10 11 -10 16 0 6 5 7 10 4 6 -3 10 -11 10 -16z"/>
<path d="M3211 1214 c0 -11 3 -14 6 -6 3 7 2 16 -1 19 -3 4 -6 -2 -5 -13z"/>
<path d="M3425 818 c1 -12 9 -22 18 -24 15 -2 15 0 0 22 -19 29 -20 30 -18 2z"/>
<path d="M3390 762 c6 -13 14 -21 18 -18 3 4 -2 14 -12 24 -18 16 -18 16 -6
-6z"/>
<path d="M3493 686 l-28 -25 21 -21 21 -21 -1 28 c-1 17 7 35 19 45 11 10 15
17 8 18 -7 0 -25 -11 -40 -24z"/>
<path d="M3114 919 c-19 -22 -19 -22 4 -8 12 8 22 17 22 21 0 12 -6 9 -26 -13z"/>
<path d="M7392 1620 c-62 -14 -102 -70 -102 -142 0 -110 93 -120 131 -14 15
40 21 43 40 19 30 -36 148 -59 164 -33 11 18 -13 38 -39 33 -52 -10 -136 57
-136 108 0 26 -22 36 -58 29z m8 -58 c0 -24 -32 -111 -44 -121 -32 -27 -32 57
0 107 14 21 44 31 44 14z"/>
<path d="M4459 1173 c-1 -5 -2 -17 -3 -27 -1 -21 -45 -50 -285 -187 -125 -72
-159 -87 -182 -82 -23 4 -29 2 -29 -12 0 -20 11 -30 93 -85 59 -39 145 -76
248 -105 l57 -16 -24 -75 c-62 -196 -2 -415 155 -560 28 -26 104 -36 83 -11
-9 10 14 28 101 80 62 37 150 91 197 121 46 30 88 52 92 50 5 -3 8 -26 8 -52
-1 -46 -2 -48 -48 -70 -26 -13 -92 -49 -147 -80 l-100 -57 40 -3 c33 -2 58 7
140 52 54 30 101 53 103 51 2 -2 1 -17 -3 -34 -4 -19 -12 -29 -23 -28 -9 0
-30 -8 -47 -19 l-29 -19 63 -3 c35 -2 65 -1 67 0 2 2 11 46 19 97 14 77 15
106 5 160 -25 142 -114 249 -274 326 -81 39 -246 95 -282 95 -26 0 -25 22 6
97 50 119 63 172 63 253 1 82 -21 150 -47 150 -9 0 -17 -3 -17 -7z m21 -123
c0 -26 -7 -33 -52 -56 -93 -47 -297 -164 -312 -180 -14 -13 -18 -13 -41 2 -14
9 -25 18 -25 19 0 2 42 26 93 54 50 28 144 82 207 120 63 39 118 70 123 71 4
0 7 -13 7 -30z m-10 -104 c0 -33 -17 -49 -131 -121 -117 -76 -119 -76 -154
-64 -19 7 -35 16 -35 19 0 4 51 35 113 70 61 34 130 73 152 86 47 27 55 29 55
10z m-54 -158 c-38 -90 -33 -86 -82 -75 -24 6 -44 14 -44 17 0 8 121 90 133
90 4 0 1 -15 -7 -32z m42 -153 c1 -1 -16 -14 -38 -29 -22 -14 -40 -25 -40 -23
0 2 5 18 11 35 10 28 14 31 37 26 15 -4 28 -8 30 -9z m118 -31 c13 -3 24 -9
24 -13 0 -3 -21 -18 -48 -33 -26 -14 -81 -52 -122 -82 -41 -31 -77 -51 -79
-45 -1 5 0 26 4 45 5 30 17 43 88 89 45 30 88 52 95 50 8 -3 25 -8 38 -11z
m143 -58 l44 -23 -58 -26 c-81 -38 -168 -91 -253 -155 -40 -30 -75 -52 -78
-50 -3 3 -7 21 -10 39 -5 32 -1 37 60 84 63 48 233 155 245 155 3 -1 26 -11
50 -24z m132 -92 c41 -43 64 -22 -204 -185 l-200 -123 -19 23 c-31 39 -33 68
-7 91 43 37 143 107 199 140 49 29 176 89 191 90 3 0 21 -16 40 -36z m84 -103
l15 -29 -93 -60 c-127 -82 -326 -202 -336 -202 -4 0 -16 9 -26 20 -16 18 -17
22 -4 34 11 12 419 265 426 266 1 0 9 -13 18 -29z"/>
<path d="M9788 823 c-97 -100 -138 -148 -138 -161 0 -11 60 -32 93 -32 20 0
20 8 6 -105 -13 -107 -48 -224 -96 -319 -20 -41 -31 -72 -25 -78 11 -11 242
-60 258 -54 7 3 21 29 33 59 35 95 52 208 54 353 l2 138 38 8 c66 14 137 49
137 68 0 20 -247 200 -275 200 -7 0 -46 -35 -87 -77z m200 -50 l96 -67 -29
-12 c-17 -7 -53 -16 -82 -19 -28 -4 -54 -12 -56 -19 -2 -6 0 -42 5 -81 15
-117 -8 -315 -51 -426 l-10 -26 -83 16 c-60 13 -83 21 -81 32 1 8 15 46 31 84
39 94 61 184 71 297 11 111 4 128 -45 128 l-36 0 74 79 c40 44 79 80 87 80 7
1 56 -29 109 -66z"/>
<path d="M5488 769 c-20 -11 -24 -44 -8 -54 6 -4 17 -1 25 5 13 11 15 6 15
-27 0 -21 6 -48 14 -58 12 -17 17 -17 47 -5 45 18 59 29 59 48 0 11 -8 13 -34
9 -33 -5 -34 -4 -40 33 -8 51 -40 71 -78 49z"/>
<path d="M5391 654 c-32 -40 -28 -101 9 -152 17 -23 35 -42 40 -42 22 0 20 31
-4 73 -32 53 -32 70 -5 96 23 21 20 51 -5 51 -8 0 -24 -12 -35 -26z"/>
<path d="M1843 483 c-12 -27 -55 -138 -96 -248 -42 -110 -78 -208 -82 -217 -6
-14 -2 -18 18 -18 28 0 17 -24 133 287 35 95 64 177 64 184 0 6 6 9 13 6 6 -2
36 -13 65 -23 38 -14 52 -23 48 -34 -2 -8 -38 -103 -80 -210 -42 -107 -76
-199 -76 -203 0 -5 12 -7 27 -5 24 3 31 12 55 73 31 81 40 99 33 68 -3 -12 -1
-24 5 -28 5 -3 10 -1 10 6 0 7 2 10 5 7 10 -9 -40 -108 -52 -104 -6 3 -14 -1
-16 -8 -9 -22 143 -20 159 2 6 9 11 21 10 27 -2 5 -1 7 1 3 3 -5 11 -8 19 -8
9 0 12 5 8 12 -4 7 -3 8 4 4 17 -11 15 -15 -13 -26 -47 -18 -27 -30 48 -30 69
1 71 1 45 16 -16 8 -28 20 -28 27 0 9 2 9 8 -1 5 -7 17 -10 28 -6 16 5 17 4 4
-6 -13 -10 -11 -11 7 -7 15 3 20 1 16 -9 -4 -12 63 -14 443 -14 392 1 446 3
424 15 -14 8 -35 14 -47 15 -12 0 -25 5 -29 11 -3 6 -15 9 -25 6 -11 -3 -17
-2 -14 3 4 7 -81 35 -97 32 -5 -1 -8 3 -8 8 0 6 2 10 4 10 11 0 242 -83 246
-88 8 -11 80 -14 80 -4 0 29 -49 54 -220 112 -240 81 -620 220 -888 326 -118
46 -219 84 -225 84 -7 0 -22 -21 -34 -47z m272 -97 c32 -13 54 -26 49 -29 -5
-3 -27 3 -48 13 -35 15 -41 16 -54 3 -8 -7 -17 -11 -21 -7 -3 4 -1 9 6 11 7 2
9 11 6 19 -7 18 -7 18 62 -10z m90 -32 c12 -5 14 -9 4 -14 -15 -10 -41 -1 -33
11 6 11 8 11 29 3z m-175 -41 c-11 -17 -11 -17 -6 0 3 10 6 24 7 30 0 9 2 9 5
0 3 -7 0 -20 -6 -30z m107 31 c-3 -3 -12 -4 -19 -1 -8 3 -5 6 6 6 11 1 17 -2
13 -5z m-70 -19 c0 -8 -4 -12 -9 -9 -5 3 -6 10 -3 15 9 13 12 11 12 -6z m193
5 c8 -5 11 -10 5 -10 -5 0 -17 5 -25 10 -8 5 -10 10 -5 10 6 0 17 -5 25 -10z
m113 -43 c31 -12 57 -25 57 -28 0 -13 -32 -19 -48 -9 -14 9 -12 10 8 4 42 -11
10 12 -45 31 -27 10 -54 23 -60 28 -11 11 -1 8 88 -26z m-358 -43 c-11 -9 -19
-27 -19 -48 -1 -22 -5 -32 -13 -29 -16 6 -17 1 9 68 18 47 23 53 31 39 7 -13
5 -21 -8 -30z m300 28 c-3 -3 -11 0 -18 7 -9 10 -8 11 6 5 10 -3 15 -9 12 -12z
m155 -22 c8 -5 11 -10 5 -10 -5 0 -17 5 -25 10 -8 5 -10 10 -5 10 6 0 17 -5
25 -10z m40 -14 c0 -2 -7 -7 -16 -10 -8 -3 -12 -2 -9 4 6 10 25 14 25 6z m84
-32 l31 -13 -33 3 c-17 1 -35 6 -39 9 -3 4 -15 7 -25 7 -11 0 -16 5 -13 10 7
11 27 7 79 -16z m-47 -30 c-3 -3 -12 -4 -19 -1 -8 3 -5 6 6 6 11 1 17 -2 13
-5z m70 0 c-3 -3 -12 -4 -19 -1 -8 3 -5 6 6 6 11 1 17 -2 13 -5z m111 -19 c29
-9 52 -19 49 -21 -5 -5 -127 36 -127 43 0 3 6 3 13 1 6 -3 36 -13 65 -23z
m112 -41 c0 -2 -11 -3 -24 -2 -14 1 -23 5 -20 9 4 7 44 0 44 -7z m-63 -10 c-3
-3 -12 -4 -19 -1 -8 3 -5 6 6 6 11 1 17 -2 13 -5z m93 2 c0 -3 -4 -8 -10 -11
-5 -3 -10 -1 -10 4 0 6 5 11 10 11 6 0 10 -2 10 -4z m-725 -44 c-3 -3 -11 0
-18 7 -9 10 -8 11 6 5 10 -3 15 -9 12 -12z m892 -48 c-3 -3 -12 -4 -19 -1 -8
3 -5 6 6 6 11 1 17 -2 13 -5z"/>
<path d="M732 415 c-37 -16 -42 -53 -7 -47 111 20 129 12 280 -126 146 -132
194 -183 177 -189 -7 -3 -25 -16 -40 -30 l-27 -24 50 6 c59 8 93 8 160 -1 l50
-6 -19 20 c-10 12 -35 27 -55 33 -23 8 -82 55 -161 130 -253 238 -315 274
-408 234z"/>
<path d="M6492 315 c-41 -14 -92 -35 -114 -46 -38 -19 -42 -20 -108 -5 -38 9
-84 16 -102 16 -46 0 -98 -29 -125 -68 -20 -31 -83 -183 -83 -203 0 -5 11 -9
24 -9 20 0 28 11 56 87 39 104 73 143 123 143 76 0 461 -116 652 -196 67 -29
91 -34 157 -34 43 0 78 2 78 5 0 13 -132 187 -176 231 -74 76 -121 97 -224
101 -71 3 -97 0 -158 -22z m266 -49 c26 -14 68 -46 93 -73 51 -53 133 -162
127 -169 -2 -2 -57 19 -121 46 -120 51 -406 150 -432 150 -8 0 -15 4 -15 8 0
8 119 52 175 66 39 10 127 -5 173 -28z"/>
<path d="M185 278 c-35 -19 -75 -61 -75 -79 0 -33 22 -31 58 3 48 46 67 51
105 31 42 -21 135 -93 221 -170 53 -48 77 -63 100 -63 l30 0 -39 41 c-57 58
-191 171 -254 213 -56 38 -106 46 -146 24z"/>
<path d="M1951 83 c0 -25 1 -26 9 -8 12 27 12 35 0 35 -5 0 -10 -12 -9 -27z"/>
<path d="M4013 89 c-6 -6 -10 -17 -8 -23 2 -6 6 -23 9 -38 5 -22 12 -28 31
-28 23 0 25 3 19 28 -17 70 -29 83 -51 61z"/>
<path d="M3525 61 c-44 -22 -75 -45 -75 -55 0 -12 58 -6 86 9 16 8 49 15 74
15 25 0 58 -7 74 -15 15 -8 45 -15 65 -15 l36 0 -25 21 c-72 58 -167 74 -235
40z"/>
<path d="M1931 44 c0 -11 3 -14 6 -6 3 7 2 16 -1 19 -3 4 -6 -2 -5 -13z"/>
<path d="M718 29 c-21 -11 -38 -22 -38 -24 0 -2 46 -4 103 -4 l102 0 -30 25
c-37 29 -86 31 -137 3z"/>
</g>
</svg>
