<?xml version="1.0" encoding="UTF-8"?>
<svg xmlns="http://www.w3.org/2000/svg" version="1.1" width="300" height="300" viewBox="0 0 300 300"><rect x="0" y="0" width="300" height="300" fill="#ffffff"/><g transform="scale(9.091)"><g transform="translate(0,0)"><path fill-rule="evenodd" d="M8 0L8 1L11 1L11 3L10 3L10 2L9 2L9 3L10 3L10 5L9 5L9 6L8 6L8 8L9 8L9 9L8 9L8 10L6 10L6 9L7 9L7 8L6 8L6 9L5 9L5 8L3 8L3 9L2 9L2 8L0 8L0 9L1 9L1 10L0 10L0 12L1 12L1 11L2 11L2 12L3 12L3 14L2 14L2 13L0 13L0 15L1 15L1 14L2 14L2 16L0 16L0 17L2 17L2 16L3 16L3 18L5 18L5 17L4 17L4 16L6 16L6 17L7 17L7 16L6 16L6 15L8 15L8 16L10 16L10 17L11 17L11 18L12 18L12 19L9 19L9 17L8 17L8 18L6 18L6 19L4 19L4 20L3 20L3 19L2 19L2 20L3 20L3 21L10 21L10 23L11 23L11 24L10 24L10 27L11 27L11 28L12 28L12 27L16 27L16 29L15 29L15 28L14 28L14 29L9 29L9 28L8 28L8 30L9 30L9 31L8 31L8 33L9 33L9 32L10 32L10 30L11 30L11 31L12 31L12 33L16 33L16 31L18 31L18 32L17 32L17 33L20 33L20 32L21 32L21 31L22 31L22 32L23 32L23 33L27 33L27 32L28 32L28 33L30 33L30 32L33 32L33 30L32 30L32 31L31 31L31 29L29 29L29 27L30 27L30 28L31 28L31 27L30 27L30 26L31 26L31 25L32 25L32 24L33 24L33 22L32 22L32 23L31 23L31 21L32 21L32 19L33 19L33 17L32 17L32 19L30 19L30 18L31 18L31 17L29 17L29 16L28 16L28 12L31 12L31 11L30 11L30 10L31 10L31 9L30 9L30 10L29 10L29 9L27 9L27 8L26 8L26 9L27 9L27 10L29 10L29 11L28 11L28 12L26 12L26 10L23 10L23 11L22 11L22 13L23 13L23 14L22 14L22 16L23 16L23 17L21 17L21 18L20 18L20 16L21 16L21 15L20 15L20 14L21 14L21 12L20 12L20 11L21 11L21 10L22 10L22 9L21 9L21 10L20 10L20 8L19 8L19 10L18 10L18 8L15 8L15 4L16 4L16 5L17 5L17 6L16 6L16 7L17 7L17 6L18 6L18 7L19 7L19 5L20 5L20 4L21 4L21 5L22 5L22 8L24 8L24 9L25 9L25 8L24 8L24 7L25 7L25 5L22 5L22 3L23 3L23 2L22 2L22 0L21 0L21 3L20 3L20 1L18 1L18 0L17 0L17 1L16 1L16 2L15 2L15 3L14 3L14 1L15 1L15 0L14 0L14 1L12 1L12 0ZM12 2L12 4L13 4L13 2ZM17 2L17 3L18 3L18 4L20 4L20 3L18 3L18 2ZM24 2L24 4L25 4L25 2ZM10 5L10 6L9 6L9 7L10 7L10 9L9 9L9 10L10 10L10 11L8 11L8 13L6 13L6 14L8 14L8 15L10 15L10 16L12 16L12 15L13 15L13 16L14 16L14 20L13 20L13 19L12 19L12 21L11 21L11 20L10 20L10 21L11 21L11 22L12 22L12 23L13 23L13 25L11 25L11 26L15 26L15 24L16 24L16 26L17 26L17 29L19 29L19 28L20 28L20 27L18 27L18 25L19 25L19 26L22 26L22 27L21 27L21 29L22 29L22 28L23 28L23 26L24 26L24 24L26 24L26 23L27 23L27 22L28 22L28 24L29 24L29 25L31 25L31 24L29 24L29 23L30 23L30 22L28 22L28 21L29 21L29 20L30 20L30 21L31 21L31 20L30 20L30 19L29 19L29 18L28 18L28 19L26 19L26 22L25 22L25 21L24 21L24 23L23 23L23 22L22 22L22 20L24 20L24 19L23 19L23 18L26 18L26 16L25 16L25 15L27 15L27 13L26 13L26 12L25 12L25 13L26 13L26 14L25 14L25 15L24 15L24 14L23 14L23 16L25 16L25 17L23 17L23 18L22 18L22 19L21 19L21 20L20 20L20 19L19 19L19 20L18 20L18 19L15 19L15 15L14 15L14 13L16 13L16 12L17 12L17 14L16 14L16 18L18 18L18 17L19 17L19 15L18 15L18 13L19 13L19 14L20 14L20 13L19 13L19 12L17 12L17 11L18 11L18 10L17 10L17 9L16 9L16 10L17 10L17 11L15 11L15 12L14 12L14 11L12 11L12 10L14 10L14 8L13 8L13 9L12 9L12 6L13 6L13 7L14 7L14 6L13 6L13 5L12 5L12 6L11 6L11 5ZM10 6L10 7L11 7L11 6ZM20 6L20 7L21 7L21 6ZM23 6L23 7L24 7L24 6ZM32 8L32 9L33 9L33 8ZM10 9L10 10L11 10L11 9ZM2 10L2 11L4 11L4 12L5 12L5 11L4 11L4 10ZM19 10L19 11L20 11L20 10ZM32 10L32 11L33 11L33 10ZM6 11L6 12L7 12L7 11ZM9 12L9 13L10 13L10 15L11 15L11 12ZM32 12L32 13L31 13L31 14L32 14L32 13L33 13L33 12ZM12 13L12 14L13 14L13 13ZM4 14L4 15L5 15L5 14ZM30 15L30 16L33 16L33 15ZM12 17L12 18L13 18L13 17ZM0 18L0 19L1 19L1 18ZM6 19L6 20L8 20L8 19ZM15 20L15 21L14 21L14 22L13 22L13 21L12 21L12 22L13 22L13 23L16 23L16 24L18 24L18 22L20 22L20 25L21 25L21 21L20 21L20 20L19 20L19 21L18 21L18 20ZM27 20L27 21L28 21L28 20ZM0 21L0 25L3 25L3 23L4 23L4 25L8 25L8 26L9 26L9 25L8 25L8 24L6 24L6 23L7 23L7 22L6 22L6 23L5 23L5 22L3 22L3 23L2 23L2 24L1 24L1 21ZM15 21L15 22L16 22L16 23L17 23L17 21ZM22 23L22 24L23 24L23 23ZM25 25L25 28L28 28L28 25ZM26 26L26 27L27 27L27 26ZM32 28L32 29L33 29L33 28ZM14 29L14 30L12 30L12 31L13 31L13 32L14 32L14 31L15 31L15 29ZM23 29L23 30L22 30L22 31L23 31L23 32L24 32L24 31L25 31L25 30L26 30L26 31L27 31L27 30L29 30L29 31L28 31L28 32L30 32L30 30L29 30L29 29L25 29L25 30L24 30L24 29ZM18 30L18 31L19 31L19 30ZM20 30L20 31L21 31L21 30ZM0 0L0 7L7 7L7 0ZM1 1L1 6L6 6L6 1ZM2 2L2 5L5 5L5 2ZM26 0L26 7L33 7L33 0ZM27 1L27 6L32 6L32 1ZM28 2L28 5L31 5L31 2ZM0 26L0 33L7 33L7 26ZM1 27L1 32L6 32L6 27ZM2 28L2 31L5 31L5 28Z" fill="#000000"/></g></g></svg>
